G04 ---------------------------- Layer name :BOTTOM SILK LAYER*
G04 EasyEDA v5.7.22, Tue, 28 Aug 2018 22:53:05 GMT*
G04 1f8b3ca3c2ad4f10b54c6f686152f78d*
G04 Gerber Generator version 0.2*
G04 Scale: 100 percent, Rotated: No, Reflected: No *
G04 Dimensions in millimeters *
G04 leading zeros omitted , absolute positions ,3 integer and 3 decimal *
%FSLAX33Y33*%
%MOMM*%
G90*
G71D02*

%ADD14C,0.177800*%
%ADD17C,0.203200*%
%ADD18C,0.202999*%

%LPD*%

%LPD*%
G36*
G01X32785Y3064D02*
G01X32589Y3064D01*
G01X32581Y3341D01*
G01X32573Y3617D01*
G01X31970Y3625D01*
G01X31367Y3633D01*
G01X31367Y3830D01*
G01X32785Y3830D01*
G01X32785Y3064D01*
G37*

%LPC*%

%LPD*%
G36*
G01X32783Y4367D02*
G01X32755Y4341D01*
G01X32744Y4343D01*
G01X32721Y4351D01*
G01X32688Y4363D01*
G01X32645Y4379D01*
G01X32593Y4398D01*
G01X32534Y4421D01*
G01X32468Y4447D01*
G01X32398Y4474D01*
G01X32323Y4504D01*
G01X32244Y4535D01*
G01X32164Y4567D01*
G01X32083Y4600D01*
G01X32001Y4633D01*
G01X31921Y4665D01*
G01X31843Y4697D01*
G01X31768Y4728D01*
G01X31698Y4757D01*
G01X31633Y4784D01*
G01X31574Y4809D01*
G01X31523Y4831D01*
G01X31480Y4849D01*
G01X31447Y4864D01*
G01X31425Y4874D01*
G01X31415Y4880D01*
G01X31412Y4891D01*
G01X31422Y4904D01*
G01X31443Y4917D01*
G01X31472Y4931D01*
G01X31488Y4937D01*
G01X31514Y4947D01*
G01X31550Y4962D01*
G01X31594Y4979D01*
G01X31644Y5000D01*
G01X31702Y5023D01*
G01X31766Y5049D01*
G01X31835Y5077D01*
G01X31908Y5107D01*
G01X31984Y5138D01*
G01X32063Y5170D01*
G01X32144Y5203D01*
G01X32224Y5236D01*
G01X32302Y5268D01*
G01X32376Y5298D01*
G01X32445Y5326D01*
G01X32510Y5352D01*
G01X32569Y5376D01*
G01X32622Y5396D01*
G01X32667Y5414D01*
G01X32705Y5428D01*
G01X32733Y5438D01*
G01X32752Y5445D01*
G01X32761Y5447D01*
G01X32771Y5439D01*
G01X32778Y5418D01*
G01X32784Y5387D01*
G01X32785Y5350D01*
G01X32783Y5303D01*
G01X32773Y5270D01*
G01X32755Y5248D01*
G01X32729Y5234D01*
G01X32698Y5216D01*
G01X32681Y5169D01*
G01X32674Y5070D01*
G01X32672Y4893D01*
G01X32673Y4795D01*
G01X32674Y4717D01*
G01X32677Y4659D01*
G01X32681Y4616D01*
G01X32688Y4586D01*
G01X32698Y4565D01*
G01X32712Y4550D01*
G01X32729Y4539D01*
G01X32767Y4495D01*
G01X32786Y4428D01*
G01X32783Y4367D01*
G37*

%LPC*%
G36*
G01X32438Y4666D02*
G01X32464Y4662D01*
G01X32468Y4685D01*
G01X32470Y4738D01*
G01X32470Y4813D01*
G01X32468Y4903D01*
G01X32460Y5131D01*
G01X32166Y5017D01*
G01X32054Y4970D01*
G01X31966Y4929D01*
G01X31911Y4898D01*
G01X31897Y4881D01*
G01X31927Y4864D01*
G01X31992Y4835D01*
G01X32081Y4797D01*
G01X32186Y4755D01*
G01X32291Y4715D01*
G01X32377Y4684D01*
G01X32438Y4666D01*
G37*

%LPD*%
G36*
G01X31566Y5958D02*
G01X31367Y5958D01*
G01X31367Y6837D01*
G01X31563Y6837D01*
G01X31580Y6511D01*
G01X32185Y6503D01*
G01X32789Y6495D01*
G01X32780Y6404D01*
G01X32772Y6312D01*
G01X32169Y6304D01*
G01X31566Y6297D01*
G01X31566Y5958D01*
G37*

%LPC*%

%LPD*%
G36*
G01X32785Y7348D02*
G01X31367Y7348D01*
G01X31367Y7546D01*
G01X32785Y7546D01*
G01X32785Y7348D01*
G37*

%LPC*%

%LPD*%
G36*
G01X32415Y8043D02*
G01X32354Y8042D01*
G01X32292Y8050D01*
G01X32231Y8067D01*
G01X32173Y8091D01*
G01X32120Y8125D01*
G01X32060Y8169D01*
G01X32022Y8186D01*
G01X31993Y8180D01*
G01X31958Y8152D01*
G01X31917Y8125D01*
G01X31865Y8107D01*
G01X31806Y8097D01*
G01X31743Y8095D01*
G01X31679Y8103D01*
G01X31619Y8117D01*
G01X31566Y8140D01*
G01X31522Y8170D01*
G01X31480Y8213D01*
G01X31446Y8258D01*
G01X31419Y8307D01*
G01X31399Y8364D01*
G01X31384Y8430D01*
G01X31375Y8508D01*
G01X31369Y8600D01*
G01X31367Y8708D01*
G01X31367Y8993D01*
G01X32790Y8993D01*
G01X32781Y8654D01*
G01X32778Y8569D01*
G01X32774Y8495D01*
G01X32769Y8431D01*
G01X32761Y8377D01*
G01X32752Y8330D01*
G01X32740Y8289D01*
G01X32724Y8253D01*
G01X32704Y8220D01*
G01X32680Y8190D01*
G01X32651Y8162D01*
G01X32616Y8132D01*
G01X32576Y8101D01*
G01X32528Y8073D01*
G01X32473Y8053D01*
G01X32415Y8043D01*
G37*

%LPC*%
G36*
G01X32318Y8260D02*
G01X32360Y8255D01*
G01X32402Y8260D01*
G01X32443Y8274D01*
G01X32482Y8296D01*
G01X32518Y8325D01*
G01X32554Y8368D01*
G01X32575Y8417D01*
G01X32585Y8487D01*
G01X32587Y8594D01*
G01X32587Y8794D01*
G01X32134Y8794D01*
G01X32134Y8594D01*
G01X32136Y8487D01*
G01X32145Y8417D01*
G01X32167Y8368D01*
G01X32203Y8325D01*
G01X32238Y8296D01*
G01X32277Y8274D01*
G01X32318Y8260D01*
G37*
G36*
G01X31719Y8299D02*
G01X31755Y8294D01*
G01X31792Y8298D01*
G01X31834Y8311D01*
G01X31868Y8328D01*
G01X31896Y8349D01*
G01X31917Y8379D01*
G01X31933Y8417D01*
G01X31945Y8464D01*
G01X31953Y8523D01*
G01X31958Y8596D01*
G01X31969Y8794D01*
G01X31566Y8794D01*
G01X31566Y8598D01*
G01X31568Y8490D01*
G01X31578Y8423D01*
G01X31601Y8379D01*
G01X31643Y8341D01*
G01X31682Y8314D01*
G01X31719Y8299D01*
G37*

%LPD*%
G36*
G01X31934Y9490D02*
G01X31877Y9487D01*
G01X31819Y9490D01*
G01X31760Y9501D01*
G01X31703Y9518D01*
G01X31646Y9542D01*
G01X31592Y9574D01*
G01X31555Y9600D01*
G01X31522Y9628D01*
G01X31493Y9659D01*
G01X31468Y9693D01*
G01X31447Y9731D01*
G01X31428Y9773D01*
G01X31413Y9821D01*
G01X31401Y9875D01*
G01X31390Y9935D01*
G01X31383Y10003D01*
G01X31377Y10079D01*
G01X31373Y10163D01*
G01X31361Y10468D01*
G01X32785Y10468D01*
G01X32785Y10269D01*
G01X32360Y10269D01*
G01X32360Y9913D01*
G01X32573Y9807D01*
G01X32692Y9746D01*
G01X32756Y9703D01*
G01X32781Y9661D01*
G01X32785Y9603D01*
G01X32783Y9563D01*
G01X32776Y9532D01*
G01X32766Y9511D01*
G01X32752Y9503D01*
G01X32723Y9512D01*
G01X32668Y9537D01*
G01X32594Y9573D01*
G01X32510Y9618D01*
G01X32302Y9733D01*
G01X32231Y9648D01*
G01X32190Y9606D01*
G01X32145Y9570D01*
G01X32096Y9540D01*
G01X32045Y9517D01*
G01X31990Y9500D01*
G01X31934Y9490D01*
G37*

%LPC*%
G36*
G01X31811Y9709D02*
G01X31881Y9707D01*
G01X31950Y9719D01*
G01X32017Y9744D01*
G01X32077Y9783D01*
G01X32131Y9832D01*
G01X32161Y9882D01*
G01X32176Y9953D01*
G01X32185Y10067D01*
G01X32197Y10269D01*
G01X31566Y10269D01*
G01X31566Y10083D01*
G01X31569Y10007D01*
G01X31575Y9935D01*
G01X31584Y9878D01*
G01X31596Y9842D01*
G01X31633Y9791D01*
G01X31684Y9752D01*
G01X31744Y9724D01*
G01X31811Y9709D01*
G37*

%LPD*%
G36*
G01X34069Y10296D02*
G01X34000Y10274D01*
G01X33895Y10275D01*
G01X33859Y10280D01*
G01X33821Y10288D01*
G01X33778Y10299D01*
G01X33734Y10313D01*
G01X33687Y10330D01*
G01X33636Y10349D01*
G01X33583Y10372D01*
G01X33529Y10397D01*
G01X33471Y10425D01*
G01X33411Y10456D01*
G01X33349Y10490D01*
G01X33285Y10525D01*
G01X33219Y10564D01*
G01X33151Y10605D01*
G01X33080Y10649D01*
G01X33009Y10694D01*
G01X32935Y10743D01*
G01X32860Y10793D01*
G01X32783Y10846D01*
G01X32706Y10902D01*
G01X32469Y11070D01*
G01X32352Y11017D01*
G01X32291Y10995D01*
G01X32220Y10978D01*
G01X32144Y10969D01*
G01X32062Y10966D01*
G01X32008Y10969D01*
G01X31954Y10976D01*
G01X31902Y10986D01*
G01X31852Y11001D01*
G01X31803Y11019D01*
G01X31757Y11040D01*
G01X31712Y11064D01*
G01X31670Y11092D01*
G01X31630Y11122D01*
G01X31592Y11155D01*
G01X31557Y11191D01*
G01X31524Y11229D01*
G01X31495Y11269D01*
G01X31469Y11312D01*
G01X31445Y11356D01*
G01X31425Y11403D01*
G01X31408Y11450D01*
G01X31394Y11499D01*
G01X31384Y11549D01*
G01X31378Y11601D01*
G01X31376Y11654D01*
G01X31378Y11707D01*
G01X31383Y11761D01*
G01X31393Y11815D01*
G01X31429Y11973D01*
G01X31170Y12246D01*
G01X31098Y12323D01*
G01X31030Y12397D01*
G01X30966Y12470D01*
G01X30904Y12541D01*
G01X30847Y12610D01*
G01X30793Y12677D01*
G01X30743Y12741D01*
G01X30696Y12804D01*
G01X30654Y12864D01*
G01X30615Y12921D01*
G01X30580Y12977D01*
G01X30549Y13030D01*
G01X30521Y13081D01*
G01X30497Y13129D01*
G01X30477Y13175D01*
G01X30462Y13218D01*
G01X30450Y13258D01*
G01X30442Y13296D01*
G01X30438Y13330D01*
G01X30438Y13362D01*
G01X30442Y13392D01*
G01X30451Y13418D01*
G01X30463Y13441D01*
G01X30480Y13462D01*
G01X30501Y13478D01*
G01X30527Y13489D01*
G01X30558Y13496D01*
G01X30594Y13498D01*
G01X30635Y13495D01*
G01X30682Y13486D01*
G01X30733Y13473D01*
G01X30790Y13455D01*
G01X30852Y13433D01*
G01X30919Y13405D01*
G01X30992Y13373D01*
G01X31070Y13335D01*
G01X31123Y13309D01*
G01X31176Y13281D01*
G01X31230Y13251D01*
G01X31285Y13220D01*
G01X31341Y13188D01*
G01X31396Y13154D01*
G01X31453Y13119D01*
G01X31511Y13083D01*
G01X31569Y13046D01*
G01X31627Y13007D01*
G01X31686Y12968D01*
G01X31745Y12928D01*
G01X31804Y12886D01*
G01X31864Y12843D01*
G01X31924Y12800D01*
G01X32044Y12711D01*
G01X32104Y12664D01*
G01X32164Y12618D01*
G01X32224Y12571D01*
G01X32284Y12523D01*
G01X32344Y12474D01*
G01X32404Y12426D01*
G01X32464Y12376D01*
G01X32523Y12326D01*
G01X32582Y12276D01*
G01X32698Y12174D01*
G01X32813Y12072D01*
G01X32870Y12020D01*
G01X32926Y11968D01*
G01X32981Y11917D01*
G01X33035Y11865D01*
G01X33089Y11813D01*
G01X33142Y11761D01*
G01X33194Y11710D01*
G01X33246Y11659D01*
G01X33295Y11607D01*
G01X33345Y11557D01*
G01X33393Y11506D01*
G01X33440Y11455D01*
G01X33486Y11406D01*
G01X33531Y11356D01*
G01X33574Y11307D01*
G01X33616Y11259D01*
G01X33657Y11211D01*
G01X33697Y11163D01*
G01X33735Y11117D01*
G01X33771Y11071D01*
G01X33806Y11026D01*
G01X33839Y10982D01*
G01X33871Y10938D01*
G01X33901Y10896D01*
G01X33929Y10854D01*
G01X33956Y10814D01*
G01X33981Y10774D01*
G01X34003Y10736D01*
G01X34024Y10698D01*
G01X34043Y10662D01*
G01X34060Y10627D01*
G01X34075Y10594D01*
G01X34088Y10562D01*
G01X34098Y10531D01*
G01X34107Y10501D01*
G01X34113Y10473D01*
G01X34116Y10447D01*
G01X34118Y10422D01*
G01X34107Y10344D01*
G01X34069Y10296D01*
G37*

%LPC*%
G36*
G01X32029Y11180D02*
G01X32083Y11178D01*
G01X32153Y11180D01*
G01X32203Y11186D01*
G01X32233Y11198D01*
G01X32241Y11218D01*
G01X32229Y11246D01*
G01X32195Y11285D01*
G01X32140Y11337D01*
G01X32063Y11401D01*
G01X31975Y11478D01*
G01X31907Y11545D01*
G01X31865Y11598D01*
G01X31850Y11633D01*
G01X31854Y11662D01*
G01X31866Y11679D01*
G01X31888Y11683D01*
G01X31921Y11674D01*
G01X31966Y11651D01*
G01X32024Y11615D01*
G01X32095Y11564D01*
G01X32182Y11498D01*
G01X32425Y11308D01*
G01X32491Y11391D01*
G01X32522Y11436D01*
G01X32546Y11486D01*
G01X32563Y11539D01*
G01X32574Y11594D01*
G01X32578Y11650D01*
G01X32574Y11707D01*
G01X32564Y11763D01*
G01X32546Y11816D01*
G01X32523Y11867D01*
G01X32499Y11912D01*
G01X32474Y11950D01*
G01X32445Y11984D01*
G01X32414Y12013D01*
G01X32378Y12040D01*
G01X32337Y12065D01*
G01X32290Y12088D01*
G01X32239Y12108D01*
G01X32189Y12122D01*
G01X32139Y12132D01*
G01X32089Y12135D01*
G01X32040Y12134D01*
G01X31992Y12129D01*
G01X31945Y12118D01*
G01X31899Y12104D01*
G01X31856Y12086D01*
G01X31814Y12064D01*
G01X31774Y12039D01*
G01X31737Y12010D01*
G01X31703Y11978D01*
G01X31672Y11944D01*
G01X31645Y11907D01*
G01X31621Y11867D01*
G01X31601Y11826D01*
G01X31585Y11783D01*
G01X31574Y11738D01*
G01X31568Y11692D01*
G01X31567Y11644D01*
G01X31571Y11596D01*
G01X31581Y11547D01*
G01X31596Y11498D01*
G01X31617Y11452D01*
G01X31642Y11408D01*
G01X31672Y11368D01*
G01X31706Y11330D01*
G01X31744Y11296D01*
G01X31786Y11266D01*
G01X31830Y11240D01*
G01X31877Y11218D01*
G01X31926Y11200D01*
G01X31977Y11188D01*
G01X32029Y11180D01*
G37*
G36*
G01X33661Y10630D02*
G01X33706Y10626D01*
G01X33743Y10628D01*
G01X33772Y10637D01*
G01X33807Y10656D01*
G01X33826Y10679D01*
G01X33830Y10710D01*
G01X33824Y10757D01*
G01X33818Y10782D01*
G01X33809Y10808D01*
G01X33799Y10836D01*
G01X33787Y10865D01*
G01X33772Y10895D01*
G01X33756Y10927D01*
G01X33737Y10960D01*
G01X33717Y10994D01*
G01X33695Y11029D01*
G01X33670Y11065D01*
G01X33644Y11102D01*
G01X33617Y11141D01*
G01X33587Y11180D01*
G01X33556Y11220D01*
G01X33524Y11261D01*
G01X33490Y11303D01*
G01X33454Y11346D01*
G01X33417Y11389D01*
G01X33379Y11433D01*
G01X33339Y11477D01*
G01X33297Y11522D01*
G01X33255Y11568D01*
G01X33212Y11614D01*
G01X33167Y11661D01*
G01X33121Y11708D01*
G01X33074Y11755D01*
G01X33026Y11802D01*
G01X32977Y11850D01*
G01X32927Y11898D01*
G01X32876Y11946D01*
G01X32825Y11994D01*
G01X32773Y12043D01*
G01X32719Y12091D01*
G01X32666Y12139D01*
G01X32612Y12187D01*
G01X32501Y12282D01*
G01X32445Y12330D01*
G01X32389Y12377D01*
G01X32332Y12424D01*
G01X32275Y12470D01*
G01X32217Y12516D01*
G01X32159Y12561D01*
G01X32102Y12607D01*
G01X32044Y12651D01*
G01X31985Y12694D01*
G01X31927Y12737D01*
G01X31869Y12780D01*
G01X31811Y12821D01*
G01X31753Y12862D01*
G01X31695Y12902D01*
G01X31637Y12940D01*
G01X31558Y12992D01*
G01X31482Y13041D01*
G01X31409Y13086D01*
G01X31338Y13129D01*
G01X31270Y13168D01*
G01X31205Y13204D01*
G01X31143Y13237D01*
G01X31084Y13267D01*
G01X31027Y13294D01*
G01X30974Y13318D01*
G01X30923Y13338D01*
G01X30876Y13355D01*
G01X30832Y13370D01*
G01X30791Y13381D01*
G01X30754Y13389D01*
G01X30720Y13394D01*
G01X30689Y13395D01*
G01X30661Y13394D01*
G01X30638Y13389D01*
G01X30618Y13381D01*
G01X30601Y13370D01*
G01X30588Y13356D01*
G01X30579Y13339D01*
G01X30573Y13318D01*
G01X30572Y13294D01*
G01X30574Y13267D01*
G01X30581Y13236D01*
G01X30591Y13203D01*
G01X30605Y13166D01*
G01X30624Y13126D01*
G01X30646Y13083D01*
G01X30673Y13036D01*
G01X30697Y12999D01*
G01X30724Y12958D01*
G01X30756Y12913D01*
G01X30790Y12866D01*
G01X30828Y12817D01*
G01X30868Y12766D01*
G01X30910Y12713D01*
G01X30954Y12659D01*
G01X31001Y12606D01*
G01X31047Y12551D01*
G01X31096Y12496D01*
G01X31144Y12442D01*
G01X31193Y12390D01*
G01X31242Y12339D01*
G01X31290Y12289D01*
G01X31337Y12242D01*
G01X31509Y12073D01*
G01X31601Y12163D01*
G01X31650Y12205D01*
G01X31701Y12242D01*
G01X31754Y12273D01*
G01X31810Y12297D01*
G01X31870Y12316D01*
G01X31934Y12330D01*
G01X32003Y12337D01*
G01X32077Y12340D01*
G01X32146Y12337D01*
G01X32213Y12329D01*
G01X32276Y12315D01*
G01X32337Y12297D01*
G01X32394Y12273D01*
G01X32449Y12243D01*
G01X32500Y12209D01*
G01X32548Y12169D01*
G01X32593Y12123D01*
G01X32635Y12073D01*
G01X32674Y12018D01*
G01X32709Y11957D01*
G01X32730Y11911D01*
G01X32747Y11862D01*
G01X32760Y11811D01*
G01X32769Y11758D01*
G01X32773Y11703D01*
G01X32774Y11647D01*
G01X32770Y11591D01*
G01X32761Y11535D01*
G01X32749Y11480D01*
G01X32733Y11426D01*
G01X32713Y11375D01*
G01X32688Y11325D01*
G01X32665Y11285D01*
G01X32647Y11253D01*
G01X32634Y11225D01*
G01X32629Y11201D01*
G01X32632Y11179D01*
G01X32645Y11156D01*
G01X32669Y11132D01*
G01X32706Y11103D01*
G01X32758Y11069D01*
G01X32825Y11028D01*
G01X32909Y10978D01*
G01X33012Y10916D01*
G01X33102Y10864D01*
G01X33188Y10816D01*
G01X33270Y10774D01*
G01X33348Y10737D01*
G01X33421Y10704D01*
G01X33490Y10677D01*
G01X33553Y10656D01*
G01X33610Y10640D01*
G01X33661Y10630D01*
G37*

%LPD*%
G36*
G01X31572Y13834D02*
G01X31564Y13528D01*
G01X31473Y13537D01*
G01X31382Y13545D01*
G01X31374Y13950D01*
G01X31366Y14355D01*
G01X32069Y14347D01*
G01X32772Y14340D01*
G01X32779Y13935D01*
G01X32787Y13531D01*
G01X32559Y13531D01*
G01X32559Y14155D01*
G01X32249Y14155D01*
G01X32241Y13879D01*
G01X32233Y13602D01*
G01X32140Y13593D01*
G01X32048Y13584D01*
G01X32048Y14157D01*
G01X31815Y14149D01*
G01X31580Y14141D01*
G01X31572Y13834D01*
G37*

%LPC*%

%LPD*%
G36*
G01X31846Y14836D02*
G01X31367Y14836D01*
G01X31367Y15031D01*
G01X31892Y15040D01*
G01X32415Y15049D01*
G01X32494Y15127D01*
G01X32527Y15168D01*
G01X32552Y15214D01*
G01X32568Y15263D01*
G01X32574Y15314D01*
G01X32571Y15364D01*
G01X32560Y15412D01*
G01X32538Y15457D01*
G01X32507Y15496D01*
G01X32486Y15516D01*
G01X32460Y15532D01*
G01X32426Y15543D01*
G01X32376Y15552D01*
G01X32306Y15559D01*
G01X32210Y15564D01*
G01X32081Y15569D01*
G01X31913Y15574D01*
G01X31382Y15588D01*
G01X31374Y15674D01*
G01X31372Y15709D01*
G01X31374Y15741D01*
G01X31378Y15766D01*
G01X31385Y15781D01*
G01X31401Y15786D01*
G01X31435Y15791D01*
G01X31483Y15794D01*
G01X31545Y15797D01*
G01X31617Y15799D01*
G01X31698Y15800D01*
G01X31784Y15800D01*
G01X31873Y15800D01*
G01X31964Y15798D01*
G01X32054Y15796D01*
G01X32140Y15793D01*
G01X32219Y15790D01*
G01X32291Y15786D01*
G01X32351Y15781D01*
G01X32398Y15775D01*
G01X32430Y15769D01*
G01X32488Y15749D01*
G01X32542Y15721D01*
G01X32591Y15686D01*
G01X32635Y15645D01*
G01X32674Y15599D01*
G01X32707Y15549D01*
G01X32733Y15495D01*
G01X32753Y15438D01*
G01X32766Y15380D01*
G01X32771Y15319D01*
G01X32767Y15258D01*
G01X32755Y15198D01*
G01X32735Y15142D01*
G01X32704Y15086D01*
G01X32665Y15032D01*
G01X32620Y14981D01*
G01X32571Y14936D01*
G01X32519Y14899D01*
G01X32467Y14871D01*
G01X32417Y14854D01*
G01X32389Y14851D01*
G01X32343Y14847D01*
G01X32283Y14844D01*
G01X32211Y14842D01*
G01X32129Y14839D01*
G01X32039Y14838D01*
G01X31944Y14837D01*
G01X31846Y14836D01*
G37*

%LPC*%

%LPD*%
G36*
G01X32157Y16300D02*
G01X32077Y16298D01*
G01X31962Y16300D01*
G01X31878Y16311D01*
G01X31807Y16335D01*
G01X31730Y16375D01*
G01X31682Y16405D01*
G01X31639Y16437D01*
G01X31599Y16470D01*
G01X31562Y16506D01*
G01X31529Y16544D01*
G01X31499Y16585D01*
G01X31473Y16628D01*
G01X31450Y16675D01*
G01X31429Y16724D01*
G01X31413Y16777D01*
G01X31398Y16834D01*
G01X31387Y16895D01*
G01X31379Y16960D01*
G01X31373Y17029D01*
G01X31369Y17102D01*
G01X31367Y17181D01*
G01X31367Y17446D01*
G01X32792Y17446D01*
G01X32780Y17112D01*
G01X32776Y17026D01*
G01X32770Y16949D01*
G01X32763Y16880D01*
G01X32754Y16818D01*
G01X32742Y16762D01*
G01X32727Y16713D01*
G01X32710Y16667D01*
G01X32689Y16625D01*
G01X32665Y16586D01*
G01X32637Y16550D01*
G01X32605Y16514D01*
G01X32568Y16477D01*
G01X32514Y16430D01*
G01X32461Y16392D01*
G01X32408Y16360D01*
G01X32353Y16336D01*
G01X32294Y16318D01*
G01X32229Y16306D01*
G01X32157Y16300D01*
G37*

%LPC*%
G36*
G01X32025Y16495D02*
G01X32076Y16492D01*
G01X32126Y16495D01*
G01X32176Y16502D01*
G01X32226Y16515D01*
G01X32274Y16532D01*
G01X32322Y16554D01*
G01X32367Y16581D01*
G01X32410Y16612D01*
G01X32451Y16649D01*
G01X32489Y16690D01*
G01X32523Y16737D01*
G01X32555Y16792D01*
G01X32574Y16852D01*
G01X32584Y16931D01*
G01X32587Y17039D01*
G01X32587Y17247D01*
G01X31566Y17247D01*
G01X31566Y17039D01*
G01X31569Y16931D01*
G01X31579Y16852D01*
G01X31599Y16791D01*
G01X31631Y16735D01*
G01X31665Y16688D01*
G01X31703Y16647D01*
G01X31743Y16611D01*
G01X31786Y16579D01*
G01X31831Y16553D01*
G01X31878Y16531D01*
G01X31926Y16514D01*
G01X31976Y16502D01*
G01X32025Y16495D01*
G37*

%LPD*%
G36*
G01X31911Y17947D02*
G01X31846Y17946D01*
G01X31782Y17953D01*
G01X31720Y17967D01*
G01X31661Y17989D01*
G01X31606Y18020D01*
G01X31556Y18059D01*
G01X31510Y18106D01*
G01X31472Y18154D01*
G01X31441Y18205D01*
G01X31418Y18263D01*
G01X31400Y18329D01*
G01X31387Y18408D01*
G01X31379Y18503D01*
G01X31373Y18616D01*
G01X31361Y18921D01*
G01X32785Y18921D01*
G01X32785Y18722D01*
G01X32360Y18722D01*
G01X32360Y18366D01*
G01X32573Y18261D01*
G01X32692Y18200D01*
G01X32756Y18156D01*
G01X32781Y18114D01*
G01X32785Y18056D01*
G01X32784Y18017D01*
G01X32781Y17986D01*
G01X32777Y17964D01*
G01X32771Y17956D01*
G01X32747Y17965D01*
G01X32693Y17990D01*
G01X32618Y18026D01*
G01X32528Y18071D01*
G01X32300Y18186D01*
G01X32243Y18114D01*
G01X32200Y18068D01*
G01X32150Y18028D01*
G01X32095Y17997D01*
G01X32037Y17973D01*
G01X31974Y17956D01*
G01X31911Y17947D01*
G37*

%LPC*%
G36*
G01X31796Y18166D02*
G01X31851Y18158D01*
G01X31907Y18161D01*
G01X31964Y18174D01*
G01X32021Y18198D01*
G01X32061Y18223D01*
G01X32095Y18253D01*
G01X32124Y18291D01*
G01X32148Y18333D01*
G01X32167Y18382D01*
G01X32180Y18437D01*
G01X32187Y18498D01*
G01X32190Y18565D01*
G01X32190Y18722D01*
G01X31566Y18722D01*
G01X31567Y18531D01*
G01X31570Y18453D01*
G01X31578Y18382D01*
G01X31589Y18328D01*
G01X31603Y18296D01*
G01X31645Y18248D01*
G01X31693Y18211D01*
G01X31743Y18184D01*
G01X31796Y18166D01*
G37*

%LPD*%
G36*
G01X32102Y19408D02*
G01X31991Y19408D01*
G01X31864Y19409D01*
G01X31382Y19417D01*
G01X31364Y19597D01*
G01X31890Y19606D01*
G01X32415Y19616D01*
G01X32494Y19694D01*
G01X32529Y19737D01*
G01X32555Y19784D01*
G01X32570Y19834D01*
G01X32575Y19885D01*
G01X32570Y19936D01*
G01X32555Y19986D01*
G01X32529Y20033D01*
G01X32494Y20077D01*
G01X32415Y20155D01*
G01X31892Y20164D01*
G01X31367Y20172D01*
G01X31367Y20251D01*
G01X31369Y20283D01*
G01X31373Y20312D01*
G01X31379Y20335D01*
G01X31387Y20348D01*
G01X31402Y20354D01*
G01X31436Y20359D01*
G01X31484Y20362D01*
G01X31546Y20365D01*
G01X31618Y20366D01*
G01X31699Y20367D01*
G01X31785Y20367D01*
G01X31875Y20367D01*
G01X31966Y20365D01*
G01X32055Y20363D01*
G01X32141Y20360D01*
G01X32220Y20357D01*
G01X32292Y20353D01*
G01X32351Y20347D01*
G01X32399Y20342D01*
G01X32430Y20336D01*
G01X32488Y20315D01*
G01X32542Y20288D01*
G01X32590Y20255D01*
G01X32633Y20216D01*
G01X32671Y20173D01*
G01X32703Y20125D01*
G01X32728Y20074D01*
G01X32748Y20021D01*
G01X32761Y19965D01*
G01X32768Y19908D01*
G01X32767Y19851D01*
G01X32760Y19793D01*
G01X32745Y19736D01*
G01X32723Y19681D01*
G01X32694Y19627D01*
G01X32656Y19577D01*
G01X32625Y19542D01*
G01X32591Y19511D01*
G01X32556Y19486D01*
G01X32515Y19465D01*
G01X32469Y19447D01*
G01X32416Y19433D01*
G01X32354Y19423D01*
G01X32282Y19415D01*
G01X32199Y19411D01*
G01X32102Y19408D01*
G37*

%LPC*%

%LPD*%
G36*
G01X31959Y20861D02*
G01X31899Y20852D01*
G01X31837Y20853D01*
G01X31775Y20862D01*
G01X31714Y20879D01*
G01X31652Y20906D01*
G01X31603Y20934D01*
G01X31559Y20966D01*
G01X31520Y21001D01*
G01X31486Y21041D01*
G01X31456Y21087D01*
G01X31431Y21137D01*
G01X31411Y21193D01*
G01X31395Y21255D01*
G01X31383Y21324D01*
G01X31374Y21401D01*
G01X31369Y21485D01*
G01X31367Y21577D01*
G01X31367Y21842D01*
G01X32785Y21842D01*
G01X32785Y21646D01*
G01X32580Y21638D01*
G01X32374Y21630D01*
G01X32360Y21417D01*
G01X32351Y21329D01*
G01X32338Y21246D01*
G01X32323Y21178D01*
G01X32307Y21133D01*
G01X32269Y21072D01*
G01X32227Y21019D01*
G01X32179Y20972D01*
G01X32128Y20932D01*
G01X32075Y20901D01*
G01X32018Y20876D01*
G01X31959Y20861D01*
G37*

%LPC*%
G36*
G01X31795Y21080D02*
G01X31864Y21076D01*
G01X31936Y21080D01*
G01X31991Y21094D01*
G01X32039Y21123D01*
G01X32093Y21173D01*
G01X32146Y21230D01*
G01X32175Y21282D01*
G01X32187Y21346D01*
G01X32190Y21443D01*
G01X32190Y21615D01*
G01X31566Y21615D01*
G01X31566Y21429D01*
G01X31569Y21326D01*
G01X31579Y21259D01*
G01X31605Y21210D01*
G01X31649Y21160D01*
G01X31696Y21118D01*
G01X31741Y21093D01*
G01X31795Y21080D01*
G37*

%LPD*%
G54D17*
G01X3302Y22860D02*
G01X5842Y22860D01*
G01X5842Y25400D01*
G01X3302Y25400D01*
G01X3302Y23495D01*
G54D18*
G01X3302Y22860D02*
G01X3302Y23495D01*
G54D17*
G01X23622Y22860D02*
G01X26162Y22860D01*
G01X26162Y25400D01*
G01X23622Y25400D01*
G01X23622Y23495D01*
G54D18*
G01X23622Y22860D02*
G01X23622Y23495D01*
G54D17*
G01X5842Y22860D02*
G01X8382Y22860D01*
G01X8382Y25400D01*
G01X5842Y25400D01*
G01X5842Y23495D01*
G54D18*
G01X5842Y22860D02*
G01X5842Y23495D01*
G54D17*
G01X8382Y22860D02*
G01X10922Y22860D01*
G01X10922Y25400D01*
G01X8382Y25400D01*
G01X8382Y23495D01*
G54D18*
G01X8382Y22860D02*
G01X8382Y23495D01*
G54D17*
G01X10922Y22860D02*
G01X13462Y22860D01*
G01X13462Y25400D01*
G01X10922Y25400D01*
G01X10922Y23495D01*
G54D18*
G01X10922Y22860D02*
G01X10922Y23495D01*
G54D17*
G01X16002Y22860D02*
G01X18542Y22860D01*
G01X18542Y25400D01*
G01X16002Y25400D01*
G01X16002Y23495D01*
G54D18*
G01X16002Y22860D02*
G01X16002Y23495D01*
G54D17*
G01X16002Y25400D02*
G01X13462Y25400D01*
G01X13462Y22860D01*
G01X16002Y22860D01*
G01X16002Y24765D01*
G54D18*
G01X16002Y25400D02*
G01X16002Y24765D01*
G54D17*
G01X21082Y25400D02*
G01X18542Y25400D01*
G01X18542Y22860D01*
G01X21082Y22860D01*
G01X21082Y24765D01*
G54D18*
G01X21082Y25400D02*
G01X21082Y24765D01*
G54D17*
G01X28702Y25400D02*
G01X26162Y25400D01*
G01X26162Y22860D01*
G01X28702Y22860D01*
G01X28702Y24765D01*
G54D18*
G01X28702Y25400D02*
G01X28702Y24765D01*
G54D17*
G01X31242Y25400D02*
G01X28702Y25400D01*
G01X28702Y22860D01*
G01X31242Y22860D01*
G01X31242Y24765D01*
G54D18*
G01X31242Y25400D02*
G01X31242Y24765D01*
G54D17*
G01X23622Y25400D02*
G01X21082Y25400D01*
G01X21082Y22860D01*
G01X23622Y22860D01*
G01X23622Y24765D01*
G54D18*
G01X23622Y25400D02*
G01X23622Y24765D01*
G54D17*
G01X28702Y2540D02*
G01X26162Y2540D01*
G01X26162Y0D01*
G01X28702Y0D01*
G01X28702Y1905D01*
G54D18*
G01X28702Y2540D02*
G01X28702Y1905D01*
G54D17*
G01X31242Y2540D02*
G01X28702Y2540D01*
G01X28702Y0D01*
G01X31242Y0D01*
G01X31242Y1905D01*
G54D18*
G01X31242Y2540D02*
G01X31242Y1905D01*
G54D17*
G01X26162Y2540D02*
G01X23622Y2540D01*
G01X23622Y0D01*
G01X26162Y0D01*
G01X26162Y1905D01*
G54D18*
G01X26162Y2540D02*
G01X26162Y1905D01*
G54D17*
G01X5842Y2540D02*
G01X3302Y2540D01*
G01X3302Y0D01*
G01X5842Y0D01*
G01X5842Y1905D01*
G54D18*
G01X5842Y2540D02*
G01X5842Y1905D01*
G54D17*
G01X8382Y0D02*
G01X10922Y0D01*
G01X10922Y2540D01*
G01X8382Y2540D01*
G01X8382Y635D01*
G54D18*
G01X8382Y0D02*
G01X8382Y635D01*
G54D17*
G01X13462Y0D02*
G01X16002Y0D01*
G01X16002Y2540D01*
G01X13462Y2540D01*
G01X13462Y635D01*
G54D18*
G01X13462Y0D02*
G01X13462Y635D01*
G54D17*
G01X16002Y0D02*
G01X18542Y0D01*
G01X18542Y2540D01*
G01X16002Y2540D01*
G01X16002Y635D01*
G54D18*
G01X16002Y0D02*
G01X16002Y635D01*
G54D17*
G01X18542Y0D02*
G01X21082Y0D01*
G01X21082Y2540D01*
G01X18542Y2540D01*
G01X18542Y635D01*
G54D18*
G01X18542Y0D02*
G01X18542Y635D01*
G54D17*
G01X21082Y0D02*
G01X23622Y0D01*
G01X23622Y2540D01*
G01X21082Y2540D01*
G01X21082Y635D01*
G54D18*
G01X21082Y0D02*
G01X21082Y635D01*
G54D17*
G01X8382Y2540D02*
G01X5842Y2540D01*
G01X5842Y0D01*
G01X8382Y0D01*
G01X8382Y1905D01*
G54D18*
G01X8382Y2540D02*
G01X8382Y1905D01*
G54D17*
G01X13462Y2540D02*
G01X10922Y2540D01*
G01X10922Y0D01*
G01X13462Y0D01*
G01X13462Y1905D01*
G54D18*
G01X13462Y2540D02*
G01X13462Y1905D01*
G54D14*
G01X14223Y8128D02*
G01X15313Y8128D01*
G01X14223Y8128D02*
G01X14223Y7660D01*
G01X14274Y7505D01*
G01X14325Y7452D01*
G01X14429Y7401D01*
G01X14533Y7401D01*
G01X14637Y7452D01*
G01X14691Y7505D01*
G01X14742Y7660D01*
G01X14742Y8128D01*
G01X14742Y7764D02*
G01X15313Y7401D01*
G01X14378Y6433D02*
G01X14274Y6487D01*
G01X14223Y6642D01*
G01X14223Y6746D01*
G01X14274Y6901D01*
G01X14429Y7005D01*
G01X14691Y7058D01*
G01X14950Y7058D01*
G01X15158Y7005D01*
G01X15262Y6901D01*
G01X15313Y6746D01*
G01X15313Y6692D01*
G01X15262Y6537D01*
G01X15158Y6433D01*
G01X15001Y6383D01*
G01X14950Y6383D01*
G01X14795Y6433D01*
G01X14691Y6537D01*
G01X14637Y6692D01*
G01X14637Y6746D01*
G01X14691Y6901D01*
G01X14795Y7005D01*
G01X14950Y7058D01*
G01X16763Y8127D02*
G01X17853Y8127D01*
G01X16763Y8127D02*
G01X16763Y7660D01*
G01X16814Y7505D01*
G01X16865Y7452D01*
G01X16969Y7401D01*
G01X17073Y7401D01*
G01X17177Y7452D01*
G01X17231Y7505D01*
G01X17282Y7660D01*
G01X17282Y8127D01*
G01X17282Y7764D02*
G01X17853Y7401D01*
G01X16763Y6329D02*
G01X17853Y6850D01*
G01X16763Y7058D02*
G01X16763Y6329D01*
G01X19303Y8127D02*
G01X20393Y8127D01*
G01X19303Y8127D02*
G01X19303Y7660D01*
G01X19354Y7505D01*
G01X19405Y7452D01*
G01X19509Y7401D01*
G01X19613Y7401D01*
G01X19717Y7452D01*
G01X19771Y7505D01*
G01X19822Y7660D01*
G01X19822Y8127D01*
G01X19822Y7764D02*
G01X20393Y7401D01*
G01X19303Y6797D02*
G01X19354Y6954D01*
G01X19458Y7005D01*
G01X19563Y7005D01*
G01X19667Y6954D01*
G01X19717Y6850D01*
G01X19771Y6642D01*
G01X19822Y6487D01*
G01X19926Y6382D01*
G01X20030Y6329D01*
G01X20185Y6329D01*
G01X20289Y6382D01*
G01X20342Y6433D01*
G01X20393Y6591D01*
G01X20393Y6797D01*
G01X20342Y6954D01*
G01X20289Y7005D01*
G01X20185Y7058D01*
G01X20030Y7058D01*
G01X19926Y7005D01*
G01X19822Y6901D01*
G01X19771Y6746D01*
G01X19717Y6537D01*
G01X19667Y6433D01*
G01X19563Y6382D01*
G01X19458Y6382D01*
G01X19354Y6433D01*
G01X19303Y6591D01*
G01X19303Y6797D01*
G01X21843Y8128D02*
G01X22933Y8128D01*
G01X21843Y8128D02*
G01X21843Y7660D01*
G01X21894Y7505D01*
G01X21945Y7452D01*
G01X22049Y7401D01*
G01X22153Y7401D01*
G01X22257Y7452D01*
G01X22311Y7505D01*
G01X22362Y7660D01*
G01X22362Y8128D01*
G01X22362Y7764D02*
G01X22933Y7401D01*
G01X22207Y6383D02*
G01X22362Y6433D01*
G01X22466Y6537D01*
G01X22517Y6692D01*
G01X22517Y6746D01*
G01X22466Y6901D01*
G01X22362Y7005D01*
G01X22207Y7058D01*
G01X22153Y7058D01*
G01X21998Y7005D01*
G01X21894Y6901D01*
G01X21843Y6746D01*
G01X21843Y6692D01*
G01X21894Y6537D01*
G01X21998Y6433D01*
G01X22207Y6383D01*
G01X22466Y6383D01*
G01X22725Y6433D01*
G01X22882Y6537D01*
G01X22933Y6692D01*
G01X22933Y6797D01*
G01X22882Y6954D01*
G01X22778Y7005D01*
G01X1524Y8128D02*
G01X2613Y8128D01*
G01X1524Y8128D02*
G01X1524Y7660D01*
G01X1574Y7505D01*
G01X1625Y7452D01*
G01X1729Y7401D01*
G01X1833Y7401D01*
G01X1938Y7452D01*
G01X1991Y7505D01*
G01X2042Y7660D01*
G01X2042Y8128D01*
G01X2042Y7764D02*
G01X2613Y7401D01*
G01X1729Y7058D02*
G01X1678Y6954D01*
G01X1524Y6797D01*
G01X2613Y6797D01*
G01X4064Y8127D02*
G01X5153Y8127D01*
G01X4064Y8127D02*
G01X4064Y7660D01*
G01X4114Y7505D01*
G01X4165Y7452D01*
G01X4269Y7401D01*
G01X4373Y7401D01*
G01X4478Y7452D01*
G01X4531Y7505D01*
G01X4582Y7660D01*
G01X4582Y8127D01*
G01X4582Y7764D02*
G01X5153Y7401D01*
G01X4323Y7005D02*
G01X4269Y7005D01*
G01X4165Y6954D01*
G01X4114Y6901D01*
G01X4064Y6797D01*
G01X4064Y6591D01*
G01X4114Y6487D01*
G01X4165Y6433D01*
G01X4269Y6382D01*
G01X4373Y6382D01*
G01X4478Y6433D01*
G01X4635Y6537D01*
G01X5153Y7058D01*
G01X5153Y6329D01*
G01X6604Y8127D02*
G01X7693Y8127D01*
G01X6604Y8127D02*
G01X6604Y7660D01*
G01X6654Y7505D01*
G01X6705Y7452D01*
G01X6809Y7401D01*
G01X6913Y7401D01*
G01X7018Y7452D01*
G01X7071Y7505D01*
G01X7122Y7660D01*
G01X7122Y8127D01*
G01X7122Y7764D02*
G01X7693Y7401D01*
G01X6604Y6954D02*
G01X6604Y6382D01*
G01X7018Y6692D01*
G01X7018Y6537D01*
G01X7071Y6433D01*
G01X7122Y6382D01*
G01X7277Y6329D01*
G01X7381Y6329D01*
G01X7538Y6382D01*
G01X7642Y6487D01*
G01X7693Y6642D01*
G01X7693Y6797D01*
G01X7642Y6954D01*
G01X7589Y7005D01*
G01X7485Y7058D01*
G01X9144Y8128D02*
G01X10233Y8128D01*
G01X9144Y8128D02*
G01X9144Y7660D01*
G01X9194Y7505D01*
G01X9245Y7452D01*
G01X9349Y7401D01*
G01X9453Y7401D01*
G01X9558Y7452D01*
G01X9611Y7505D01*
G01X9662Y7660D01*
G01X9662Y8128D01*
G01X9662Y7764D02*
G01X10233Y7401D01*
G01X9144Y6537D02*
G01X9870Y7058D01*
G01X9870Y6278D01*
G01X9144Y6537D02*
G01X10233Y6537D01*
G01X11683Y8127D02*
G01X12773Y8127D01*
G01X11683Y8127D02*
G01X11683Y7660D01*
G01X11734Y7505D01*
G01X11785Y7452D01*
G01X11889Y7401D01*
G01X11993Y7401D01*
G01X12097Y7452D01*
G01X12151Y7505D01*
G01X12202Y7660D01*
G01X12202Y8127D01*
G01X12202Y7764D02*
G01X12773Y7401D01*
G01X11683Y6433D02*
G01X11683Y6954D01*
G01X12151Y7005D01*
G01X12097Y6954D01*
G01X12047Y6797D01*
G01X12047Y6642D01*
G01X12097Y6487D01*
G01X12202Y6382D01*
G01X12357Y6329D01*
G01X12461Y6329D01*
G01X12618Y6382D01*
G01X12722Y6487D01*
G01X12773Y6642D01*
G01X12773Y6797D01*
G01X12722Y6954D01*
G01X12669Y7005D01*
G01X12565Y7058D01*
M00*
M02*
