G04 ---------------------------- Layer name :TOP SILK LAYER*
G04 EasyEDA v5.7.22, Tue, 28 Aug 2018 22:53:05 GMT*
G04 1f8b3ca3c2ad4f10b54c6f686152f78d*
G04 Gerber Generator version 0.2*
G04 Scale: 100 percent, Rotated: No, Reflected: No *
G04 Dimensions in millimeters *
G04 leading zeros omitted , absolute positions ,3 integer and 3 decimal *
%FSLAX33Y33*%
%MOMM*%
G90*
G71D02*

%ADD10C,0.254000*%
%ADD14C,0.177800*%
%ADD15C,0.101600*%
%ADD16C,0.076200*%

%LPD*%
G54D10*
G01X26162Y22606D02*
G01X762Y22606D01*
G01X762Y12446D02*
G01X26162Y12446D01*
G01X26162Y22606D02*
G01X26162Y20066D01*
G01X762Y22606D02*
G01X762Y20066D01*
G01X762Y12446D02*
G01X762Y14986D01*
G01X762Y20066D02*
G01X26162Y20066D01*
G01X762Y20066D02*
G01X762Y18542D01*
G01X26162Y20066D02*
G01X26162Y14986D01*
G01X762Y14986D02*
G01X26162Y14986D01*
G01X762Y14986D02*
G01X762Y16510D01*
G01X26162Y14986D02*
G01X26162Y12446D01*
G01X26670Y22606D02*
G01X26670Y4826D01*
G01X36830Y4826D02*
G01X36830Y22606D01*
G01X26670Y22606D02*
G01X29210Y22606D01*
G01X26670Y4826D02*
G01X29210Y4826D01*
G01X36830Y4826D02*
G01X34290Y4826D01*
G01X29210Y4826D02*
G01X29210Y22606D01*
G01X29210Y4826D02*
G01X30734Y4826D01*
G01X29210Y22606D02*
G01X34290Y22606D01*
G01X34290Y4826D02*
G01X34290Y22606D01*
G01X34290Y4826D02*
G01X32766Y4826D01*
G01X34290Y22606D02*
G01X36830Y22606D01*
G01X13970Y4826D02*
G01X13970Y9906D01*
G01X13970Y9906D02*
G01X14732Y9906D01*
G01X14732Y9906D02*
G01X15494Y9906D01*
G01X15494Y9906D02*
G01X15494Y4826D01*
G01X15494Y4826D02*
G01X14732Y4826D01*
G01X14732Y4826D02*
G01X13970Y4826D01*
G01X14732Y9906D02*
G01X14732Y10160D01*
G01X14732Y4826D02*
G01X14732Y4572D01*
G01X16510Y4826D02*
G01X16510Y9906D01*
G01X16510Y9906D02*
G01X17272Y9906D01*
G01X17272Y9906D02*
G01X18034Y9906D01*
G01X18034Y9906D02*
G01X18034Y4826D01*
G01X18034Y4826D02*
G01X17272Y4826D01*
G01X17272Y4826D02*
G01X16510Y4826D01*
G01X17272Y9906D02*
G01X17272Y10160D01*
G01X17272Y4826D02*
G01X17272Y4572D01*
G01X19050Y4826D02*
G01X19050Y9906D01*
G01X19050Y9906D02*
G01X19812Y9906D01*
G01X19812Y9906D02*
G01X20574Y9906D01*
G01X20574Y9906D02*
G01X20574Y4826D01*
G01X20574Y4826D02*
G01X19812Y4826D01*
G01X19812Y4826D02*
G01X19050Y4826D01*
G01X19812Y9906D02*
G01X19812Y10160D01*
G01X19812Y4826D02*
G01X19812Y4572D01*
G01X21590Y4826D02*
G01X21590Y9906D01*
G01X21590Y9906D02*
G01X22352Y9906D01*
G01X22352Y9906D02*
G01X23114Y9906D01*
G01X23114Y9906D02*
G01X23114Y4826D01*
G01X23114Y4826D02*
G01X22352Y4826D01*
G01X22352Y4826D02*
G01X21590Y4826D01*
G01X22352Y9906D02*
G01X22352Y10160D01*
G01X22352Y4826D02*
G01X22352Y4572D01*
G01X1270Y4826D02*
G01X1270Y9906D01*
G01X1270Y9906D02*
G01X2032Y9906D01*
G01X2032Y9906D02*
G01X2794Y9906D01*
G01X2794Y9906D02*
G01X2794Y4826D01*
G01X2794Y4826D02*
G01X2032Y4826D01*
G01X2032Y4826D02*
G01X1270Y4826D01*
G01X2032Y9906D02*
G01X2032Y10160D01*
G01X2032Y4826D02*
G01X2032Y4572D01*
G01X3810Y4826D02*
G01X3810Y9906D01*
G01X3810Y9906D02*
G01X4572Y9906D01*
G01X4572Y9906D02*
G01X5334Y9906D01*
G01X5334Y9906D02*
G01X5334Y4826D01*
G01X5334Y4826D02*
G01X4572Y4826D01*
G01X4572Y4826D02*
G01X3810Y4826D01*
G01X4572Y9906D02*
G01X4572Y10160D01*
G01X4572Y4826D02*
G01X4572Y4572D01*
G01X6350Y4826D02*
G01X6350Y9906D01*
G01X6350Y9906D02*
G01X7112Y9906D01*
G01X7112Y9906D02*
G01X7874Y9906D01*
G01X7874Y9906D02*
G01X7874Y4826D01*
G01X7874Y4826D02*
G01X7112Y4826D01*
G01X7112Y4826D02*
G01X6350Y4826D01*
G01X7112Y9906D02*
G01X7112Y10160D01*
G01X7112Y4826D02*
G01X7112Y4572D01*
G01X8890Y4826D02*
G01X8890Y9906D01*
G01X8890Y9906D02*
G01X9652Y9906D01*
G01X9652Y9906D02*
G01X10414Y9906D01*
G01X10414Y9906D02*
G01X10414Y4826D01*
G01X10414Y4826D02*
G01X9652Y4826D01*
G01X9652Y4826D02*
G01X8890Y4826D01*
G01X9652Y9906D02*
G01X9652Y10160D01*
G01X9652Y4826D02*
G01X9652Y4572D01*
G01X11430Y4826D02*
G01X11430Y9906D01*
G01X11430Y9906D02*
G01X12192Y9906D01*
G01X12192Y9906D02*
G01X12954Y9906D01*
G01X12954Y9906D02*
G01X12954Y4826D01*
G01X12954Y4826D02*
G01X12192Y4826D01*
G01X12192Y4826D02*
G01X11430Y4826D01*
G01X12192Y9906D02*
G01X12192Y10160D01*
G01X12192Y4826D02*
G01X12192Y4572D01*
G54D14*
G01X12192Y18034D02*
G01X12192Y17256D01*
G01X12242Y17099D01*
G01X12346Y16995D01*
G01X12504Y16944D01*
G01X12608Y16944D01*
G01X12763Y16995D01*
G01X12867Y17099D01*
G01X12918Y17256D01*
G01X12918Y18034D01*
G01X13261Y17828D02*
G01X13365Y17879D01*
G01X13522Y18034D01*
G01X13522Y16944D01*
G01X30988Y12933D02*
G01X31765Y12933D01*
G01X31922Y12984D01*
G01X32026Y13088D01*
G01X32077Y13246D01*
G01X32077Y13350D01*
G01X32026Y13505D01*
G01X31922Y13609D01*
G01X31765Y13660D01*
G01X30988Y13660D01*
G01X31247Y14056D02*
G01X31193Y14056D01*
G01X31089Y14107D01*
G01X31038Y14160D01*
G01X30988Y14264D01*
G01X30988Y14470D01*
G01X31038Y14574D01*
G01X31089Y14627D01*
G01X31193Y14678D01*
G01X31297Y14678D01*
G01X31402Y14627D01*
G01X31559Y14523D01*
G01X32077Y14002D01*
G01X32077Y14731D01*
G54D15*
G01X2308Y8336D02*
G01X2354Y8336D01*
G01X2448Y8290D01*
G01X2494Y8242D01*
G01X2540Y8150D01*
G01X2540Y7965D01*
G01X2494Y7874D01*
G01X2448Y7828D01*
G01X2354Y7782D01*
G01X2263Y7782D01*
G01X2171Y7828D01*
G01X2032Y7919D01*
G01X1569Y8382D01*
G01X1569Y7734D01*
G01X2540Y7152D02*
G01X2494Y7292D01*
G01X2354Y7383D01*
G01X2126Y7429D01*
G01X1986Y7429D01*
G01X1755Y7383D01*
G01X1618Y7292D01*
G01X1569Y7152D01*
G01X1569Y7061D01*
G01X1618Y6921D01*
G01X1755Y6830D01*
G01X1986Y6784D01*
G01X2126Y6784D01*
G01X2354Y6830D01*
G01X2494Y6921D01*
G01X2540Y7061D01*
G01X2540Y7152D01*
G01X2540Y6479D02*
G01X1569Y6479D01*
G01X2217Y6017D02*
G01X1755Y6479D01*
G01X1940Y6294D02*
G01X1569Y5971D01*
G01X4848Y8336D02*
G01X4894Y8336D01*
G01X4988Y8290D01*
G01X5034Y8242D01*
G01X5079Y8150D01*
G01X5079Y7965D01*
G01X5034Y7874D01*
G01X4988Y7828D01*
G01X4894Y7782D01*
G01X4803Y7782D01*
G01X4711Y7828D01*
G01X4571Y7919D01*
G01X4109Y8382D01*
G01X4109Y7734D01*
G01X5079Y7152D02*
G01X5034Y7292D01*
G01X4894Y7383D01*
G01X4665Y7429D01*
G01X4526Y7429D01*
G01X4295Y7383D01*
G01X4157Y7292D01*
G01X4109Y7152D01*
G01X4109Y7061D01*
G01X4157Y6921D01*
G01X4295Y6830D01*
G01X4526Y6784D01*
G01X4665Y6784D01*
G01X4894Y6830D01*
G01X5034Y6921D01*
G01X5079Y7061D01*
G01X5079Y7152D01*
G01X5079Y6479D02*
G01X4109Y6479D01*
G01X4757Y6017D02*
G01X4295Y6479D01*
G01X4480Y6294D02*
G01X4109Y5971D01*
G01X7434Y8336D02*
G01X7480Y8336D01*
G01X7574Y8290D01*
G01X7620Y8242D01*
G01X7665Y8150D01*
G01X7665Y7965D01*
G01X7620Y7874D01*
G01X7574Y7828D01*
G01X7480Y7782D01*
G01X7388Y7782D01*
G01X7297Y7828D01*
G01X7157Y7919D01*
G01X6695Y8382D01*
G01X6695Y7734D01*
G01X7665Y7152D02*
G01X7620Y7292D01*
G01X7480Y7383D01*
G01X7251Y7429D01*
G01X7112Y7429D01*
G01X6880Y7383D01*
G01X6743Y7292D01*
G01X6695Y7152D01*
G01X6695Y7061D01*
G01X6743Y6921D01*
G01X6880Y6830D01*
G01X7112Y6784D01*
G01X7251Y6784D01*
G01X7480Y6830D01*
G01X7620Y6921D01*
G01X7665Y7061D01*
G01X7665Y7152D01*
G01X7665Y6479D02*
G01X6695Y6479D01*
G01X7343Y6017D02*
G01X6880Y6479D01*
G01X7066Y6294D02*
G01X6695Y5971D01*
G01X12468Y8336D02*
G01X12514Y8336D01*
G01X12608Y8290D01*
G01X12654Y8242D01*
G01X12699Y8150D01*
G01X12699Y7965D01*
G01X12654Y7874D01*
G01X12608Y7828D01*
G01X12514Y7782D01*
G01X12423Y7782D01*
G01X12331Y7828D01*
G01X12191Y7919D01*
G01X11729Y8382D01*
G01X11729Y7734D01*
G01X12699Y7152D02*
G01X12654Y7292D01*
G01X12514Y7383D01*
G01X12285Y7429D01*
G01X12146Y7429D01*
G01X11915Y7383D01*
G01X11777Y7292D01*
G01X11729Y7152D01*
G01X11729Y7061D01*
G01X11777Y6921D01*
G01X11915Y6830D01*
G01X12146Y6784D01*
G01X12285Y6784D01*
G01X12514Y6830D01*
G01X12654Y6921D01*
G01X12699Y7061D01*
G01X12699Y7152D01*
G01X12699Y6479D02*
G01X11729Y6479D01*
G01X12377Y6017D02*
G01X11915Y6479D01*
G01X12100Y6294D02*
G01X11729Y5971D01*
G01X9928Y8336D02*
G01X9974Y8336D01*
G01X10068Y8290D01*
G01X10114Y8242D01*
G01X10159Y8150D01*
G01X10159Y7965D01*
G01X10114Y7874D01*
G01X10068Y7828D01*
G01X9974Y7782D01*
G01X9883Y7782D01*
G01X9791Y7828D01*
G01X9651Y7919D01*
G01X9189Y8382D01*
G01X9189Y7734D01*
G01X10159Y7152D02*
G01X10114Y7292D01*
G01X9974Y7383D01*
G01X9745Y7429D01*
G01X9606Y7429D01*
G01X9375Y7383D01*
G01X9237Y7292D01*
G01X9189Y7152D01*
G01X9189Y7061D01*
G01X9237Y6921D01*
G01X9375Y6830D01*
G01X9606Y6784D01*
G01X9745Y6784D01*
G01X9974Y6830D01*
G01X10114Y6921D01*
G01X10159Y7061D01*
G01X10159Y7152D01*
G01X10159Y6479D02*
G01X9189Y6479D01*
G01X9837Y6017D02*
G01X9375Y6479D01*
G01X9560Y6294D02*
G01X9189Y5971D01*
G01X15008Y8336D02*
G01X15054Y8336D01*
G01X15148Y8290D01*
G01X15194Y8242D01*
G01X15240Y8150D01*
G01X15240Y7965D01*
G01X15194Y7874D01*
G01X15148Y7828D01*
G01X15054Y7782D01*
G01X14963Y7782D01*
G01X14871Y7828D01*
G01X14732Y7919D01*
G01X14269Y8382D01*
G01X14269Y7734D01*
G01X15008Y7383D02*
G01X15054Y7383D01*
G01X15148Y7338D01*
G01X15194Y7292D01*
G01X15240Y7200D01*
G01X15240Y7015D01*
G01X15194Y6921D01*
G01X15148Y6875D01*
G01X15054Y6830D01*
G01X14963Y6830D01*
G01X14871Y6875D01*
G01X14732Y6969D01*
G01X14269Y7429D01*
G01X14269Y6784D01*
G01X15240Y6202D02*
G01X15194Y6339D01*
G01X15054Y6433D01*
G01X14826Y6479D01*
G01X14686Y6479D01*
G01X14455Y6433D01*
G01X14318Y6339D01*
G01X14269Y6202D01*
G01X14269Y6108D01*
G01X14318Y5971D01*
G01X14455Y5880D01*
G01X14686Y5831D01*
G01X14826Y5831D01*
G01X15054Y5880D01*
G01X15194Y5971D01*
G01X15240Y6108D01*
G01X15240Y6202D01*
G01X17548Y8336D02*
G01X17594Y8336D01*
G01X17688Y8290D01*
G01X17734Y8242D01*
G01X17780Y8150D01*
G01X17780Y7965D01*
G01X17734Y7874D01*
G01X17688Y7828D01*
G01X17594Y7782D01*
G01X17503Y7782D01*
G01X17411Y7828D01*
G01X17272Y7919D01*
G01X16809Y8382D01*
G01X16809Y7734D01*
G01X17548Y7383D02*
G01X17594Y7383D01*
G01X17688Y7338D01*
G01X17734Y7292D01*
G01X17780Y7200D01*
G01X17780Y7015D01*
G01X17734Y6921D01*
G01X17688Y6875D01*
G01X17594Y6830D01*
G01X17503Y6830D01*
G01X17411Y6875D01*
G01X17272Y6969D01*
G01X16809Y7429D01*
G01X16809Y6784D01*
G01X17780Y6202D02*
G01X17734Y6339D01*
G01X17594Y6433D01*
G01X17366Y6479D01*
G01X17226Y6479D01*
G01X16995Y6433D01*
G01X16858Y6339D01*
G01X16809Y6202D01*
G01X16809Y6108D01*
G01X16858Y5971D01*
G01X16995Y5880D01*
G01X17226Y5831D01*
G01X17366Y5831D01*
G01X17594Y5880D01*
G01X17734Y5971D01*
G01X17780Y6108D01*
G01X17780Y6202D01*
G01X20088Y8336D02*
G01X20134Y8336D01*
G01X20228Y8290D01*
G01X20274Y8242D01*
G01X20320Y8150D01*
G01X20320Y7965D01*
G01X20274Y7874D01*
G01X20228Y7828D01*
G01X20134Y7782D01*
G01X20043Y7782D01*
G01X19951Y7828D01*
G01X19812Y7919D01*
G01X19349Y8382D01*
G01X19349Y7734D01*
G01X20088Y7383D02*
G01X20134Y7383D01*
G01X20228Y7338D01*
G01X20274Y7292D01*
G01X20320Y7200D01*
G01X20320Y7015D01*
G01X20274Y6921D01*
G01X20228Y6875D01*
G01X20134Y6830D01*
G01X20043Y6830D01*
G01X19951Y6875D01*
G01X19812Y6969D01*
G01X19349Y7429D01*
G01X19349Y6784D01*
G01X20320Y6202D02*
G01X20274Y6339D01*
G01X20134Y6433D01*
G01X19906Y6479D01*
G01X19766Y6479D01*
G01X19535Y6433D01*
G01X19398Y6339D01*
G01X19349Y6202D01*
G01X19349Y6108D01*
G01X19398Y5971D01*
G01X19535Y5880D01*
G01X19766Y5831D01*
G01X19906Y5831D01*
G01X20134Y5880D01*
G01X20274Y5971D01*
G01X20320Y6108D01*
G01X20320Y6202D01*
G01X22628Y8336D02*
G01X22674Y8336D01*
G01X22768Y8290D01*
G01X22814Y8242D01*
G01X22860Y8150D01*
G01X22860Y7965D01*
G01X22814Y7874D01*
G01X22768Y7828D01*
G01X22674Y7782D01*
G01X22583Y7782D01*
G01X22491Y7828D01*
G01X22352Y7919D01*
G01X21889Y8382D01*
G01X21889Y7734D01*
G01X22628Y7383D02*
G01X22674Y7383D01*
G01X22768Y7338D01*
G01X22814Y7292D01*
G01X22860Y7200D01*
G01X22860Y7015D01*
G01X22814Y6921D01*
G01X22768Y6875D01*
G01X22674Y6830D01*
G01X22583Y6830D01*
G01X22491Y6875D01*
G01X22352Y6969D01*
G01X21889Y7429D01*
G01X21889Y6784D01*
G01X22860Y6202D02*
G01X22814Y6339D01*
G01X22674Y6433D01*
G01X22446Y6479D01*
G01X22306Y6479D01*
G01X22075Y6433D01*
G01X21938Y6339D01*
G01X21889Y6202D01*
G01X21889Y6108D01*
G01X21938Y5971D01*
G01X22075Y5880D01*
G01X22306Y5831D01*
G01X22446Y5831D01*
G01X22674Y5880D01*
G01X22814Y5971D01*
G01X22860Y6108D01*
G01X22860Y6202D01*
G54D16*
G01X23876Y4285D02*
G01X23876Y3556D01*
G01X23876Y4285D02*
G01X24188Y4285D01*
G01X24292Y4249D01*
G01X24325Y4213D01*
G01X24361Y4145D01*
G01X24361Y4041D01*
G01X24325Y3972D01*
G01X24292Y3937D01*
G01X24188Y3904D01*
G01X23876Y3904D01*
G01X24589Y4041D02*
G01X24589Y3695D01*
G01X24625Y3591D01*
G01X24693Y3556D01*
G01X24798Y3556D01*
G01X24866Y3591D01*
G01X24970Y3695D01*
G01X24970Y4041D02*
G01X24970Y3556D01*
G01X25199Y4041D02*
G01X25199Y3556D01*
G01X25199Y3832D02*
G01X25234Y3937D01*
G01X25303Y4008D01*
G01X25372Y4041D01*
G01X25476Y4041D01*
G01X26121Y4285D02*
G01X26121Y3556D01*
G01X26121Y3937D02*
G01X26050Y4008D01*
G01X25981Y4041D01*
G01X25877Y4041D01*
G01X25808Y4008D01*
G01X25740Y3937D01*
G01X25704Y3832D01*
G01X25704Y3764D01*
G01X25740Y3660D01*
G01X25808Y3591D01*
G01X25877Y3556D01*
G01X25981Y3556D01*
G01X26050Y3591D01*
G01X26121Y3660D01*
G01X26349Y4041D02*
G01X26349Y3695D01*
G01X26382Y3591D01*
G01X26454Y3556D01*
G01X26555Y3556D01*
G01X26626Y3591D01*
G01X26730Y3695D01*
G01X26730Y4041D02*
G01X26730Y3556D01*
G01X26959Y3832D02*
G01X27373Y3832D01*
G01X27373Y3904D01*
G01X27340Y3972D01*
G01X27305Y4008D01*
G01X27236Y4041D01*
G01X27132Y4041D01*
G01X27063Y4008D01*
G01X26992Y3937D01*
G01X26959Y3832D01*
G01X26959Y3764D01*
G01X26992Y3660D01*
G01X27063Y3591D01*
G01X27132Y3556D01*
G01X27236Y3556D01*
G01X27305Y3591D01*
G01X27373Y3660D01*
G01X28343Y4285D02*
G01X28275Y4249D01*
G01X28206Y4180D01*
G01X28171Y4109D01*
G01X28135Y4008D01*
G01X28135Y3832D01*
G01X28171Y3728D01*
G01X28206Y3660D01*
G01X28275Y3591D01*
G01X28343Y3556D01*
G01X28483Y3556D01*
G01X28552Y3591D01*
G01X28620Y3660D01*
G01X28656Y3728D01*
G01X28689Y3832D01*
G01X28689Y4008D01*
G01X28656Y4109D01*
G01X28620Y4180D01*
G01X28552Y4249D01*
G01X28483Y4285D01*
G01X28343Y4285D01*
G01X28917Y4041D02*
G01X28917Y3556D01*
G01X28917Y3832D02*
G01X28953Y3937D01*
G01X29022Y4008D01*
G01X29093Y4041D01*
G01X29197Y4041D01*
G01X29425Y4285D02*
G01X29425Y3556D01*
G01X29425Y3937D02*
G01X29494Y4008D01*
G01X29563Y4041D01*
G01X29667Y4041D01*
G01X29735Y4008D01*
G01X29806Y3937D01*
G01X29839Y3832D01*
G01X29839Y3764D01*
G01X29806Y3660D01*
G01X29735Y3591D01*
G01X29667Y3556D01*
G01X29563Y3556D01*
G01X29494Y3591D01*
G01X29425Y3660D01*
G01X30068Y4285D02*
G01X30104Y4249D01*
G01X30137Y4285D01*
G01X30104Y4318D01*
G01X30068Y4285D01*
G01X30104Y4041D02*
G01X30104Y3556D01*
G01X30469Y4285D02*
G01X30469Y3695D01*
G01X30505Y3591D01*
G01X30573Y3556D01*
G01X30645Y3556D01*
G01X30365Y4041D02*
G01X30609Y4041D01*
G01X31287Y4041D02*
G01X31287Y3556D01*
G01X31287Y3937D02*
G01X31219Y4008D01*
G01X31150Y4041D01*
G01X31046Y4041D01*
G01X30975Y4008D01*
G01X30906Y3937D01*
G01X30873Y3832D01*
G01X30873Y3764D01*
G01X30906Y3660D01*
G01X30975Y3591D01*
G01X31046Y3556D01*
G01X31150Y3556D01*
G01X31219Y3591D01*
G01X31287Y3660D01*
G01X31516Y4285D02*
G01X31516Y3556D01*
G01X23876Y3268D02*
G01X23876Y2540D01*
G01X23876Y2540D02*
G01X24292Y2540D01*
G01X24935Y3025D02*
G01X24935Y2540D01*
G01X24935Y2921D02*
G01X24866Y2992D01*
G01X24798Y3025D01*
G01X24693Y3025D01*
G01X24625Y2992D01*
G01X24554Y2921D01*
G01X24521Y2816D01*
G01X24521Y2748D01*
G01X24554Y2644D01*
G01X24625Y2575D01*
G01X24693Y2540D01*
G01X24798Y2540D01*
G01X24866Y2575D01*
G01X24935Y2644D01*
G01X25163Y3025D02*
G01X25163Y2679D01*
G01X25199Y2575D01*
G01X25267Y2540D01*
G01X25372Y2540D01*
G01X25440Y2575D01*
G01X25544Y2679D01*
G01X25544Y3025D02*
G01X25544Y2540D01*
G01X25773Y3025D02*
G01X25773Y2540D01*
G01X25773Y2887D02*
G01X25877Y2992D01*
G01X25946Y3025D01*
G01X26050Y3025D01*
G01X26121Y2992D01*
G01X26154Y2887D01*
G01X26154Y2540D01*
G01X26799Y2921D02*
G01X26730Y2992D01*
G01X26659Y3025D01*
G01X26555Y3025D01*
G01X26487Y2992D01*
G01X26418Y2921D01*
G01X26382Y2816D01*
G01X26382Y2748D01*
G01X26418Y2644D01*
G01X26487Y2575D01*
G01X26555Y2540D01*
G01X26659Y2540D01*
G01X26730Y2575D01*
G01X26799Y2644D01*
G01X27028Y3268D02*
G01X27028Y2540D01*
G01X27028Y2887D02*
G01X27132Y2992D01*
G01X27200Y3025D01*
G01X27305Y3025D01*
G01X27373Y2992D01*
G01X27409Y2887D01*
G01X27409Y2540D01*
G01X28171Y3268D02*
G01X28171Y2540D01*
G01X28399Y3025D02*
G01X28399Y2540D01*
G01X28399Y2887D02*
G01X28503Y2992D01*
G01X28572Y3025D01*
G01X28676Y3025D01*
G01X28745Y2992D01*
G01X28780Y2887D01*
G01X28780Y2540D01*
G01X29009Y3268D02*
G01X29044Y3233D01*
G01X29077Y3268D01*
G01X29044Y3302D01*
G01X29009Y3268D01*
G01X29044Y3025D02*
G01X29044Y2540D01*
G01X29410Y3268D02*
G01X29410Y2679D01*
G01X29446Y2575D01*
G01X29514Y2540D01*
G01X29583Y2540D01*
G01X29306Y3025D02*
G01X29550Y3025D01*
G01X29811Y3268D02*
G01X29847Y3233D01*
G01X29883Y3268D01*
G01X29847Y3302D01*
G01X29811Y3268D01*
G01X29847Y3025D02*
G01X29847Y2540D01*
G01X30525Y3025D02*
G01X30525Y2540D01*
G01X30525Y2921D02*
G01X30457Y2992D01*
G01X30388Y3025D01*
G01X30284Y3025D01*
G01X30213Y2992D01*
G01X30144Y2921D01*
G01X30111Y2816D01*
G01X30111Y2748D01*
G01X30144Y2644D01*
G01X30213Y2575D01*
G01X30284Y2540D01*
G01X30388Y2540D01*
G01X30457Y2575D01*
G01X30525Y2644D01*
G01X30858Y3268D02*
G01X30858Y2679D01*
G01X30894Y2575D01*
G01X30962Y2540D01*
G01X31031Y2540D01*
G01X30754Y3025D02*
G01X30998Y3025D01*
G01X31259Y3268D02*
G01X31295Y3233D01*
G01X31330Y3268D01*
G01X31295Y3302D01*
G01X31259Y3268D01*
G01X31295Y3025D02*
G01X31295Y2540D01*
G01X31732Y3025D02*
G01X31661Y2992D01*
G01X31592Y2921D01*
G01X31559Y2816D01*
G01X31559Y2748D01*
G01X31592Y2644D01*
G01X31661Y2575D01*
G01X31732Y2540D01*
G01X31836Y2540D01*
G01X31904Y2575D01*
G01X31973Y2644D01*
G01X32009Y2748D01*
G01X32009Y2816D01*
G01X31973Y2921D01*
G01X31904Y2992D01*
G01X31836Y3025D01*
G01X31732Y3025D01*
G01X32237Y3025D02*
G01X32237Y2540D01*
G01X32237Y2887D02*
G01X32341Y2992D01*
G01X32410Y3025D01*
G01X32514Y3025D01*
G01X32583Y2992D01*
G01X32618Y2887D01*
G01X32618Y2540D01*
G54D10*
G75*
G01X762Y18542D02*
G2X762Y16510I0J-1016D01*
G01*
G75*
G01X30734Y4826D02*
G2X32766Y4826I1016J0D01*
G01*
M00*
M02*
