;PTH Drill file created by EasyEDA 
M48
METRIC,LZ,000.000
;Holesize 1 = 0.813 METRIC
T01C0.813
;Holesize 2 = 0.889 METRIC
T02C0.889
%
G05
G90
T01
X002032Y013716
X004572Y013716
X012192Y013716
X014732Y013716
X007112Y013716
X009652Y013716
X017272Y013716
X019812Y013716
X022352Y013716
X024892Y013716
X024892Y021336
X022352Y021336
X019812Y021336
X017272Y021336
X014732Y021336
X012192Y021336
X009652Y021336
X007112Y021336
X004572Y021336
X002032Y021336
X035560Y006096
X035560Y008636
X035560Y016256
X035560Y018796
X035560Y011176
X035560Y013716
X035560Y021336
X027940Y021336
X027940Y018796
X027940Y016256
X027940Y013716
X027940Y011176
X027940Y008636
X027940Y006096
T02
X004572Y024130
X024892Y024130
X007112Y024130
X009652Y024130
X012192Y024130
X017272Y024130
X014732Y024130
X019812Y024130
X027432Y024130
X029972Y024130
X022352Y024130
X027432Y001270
X029972Y001270
X024892Y001270
X004572Y001270
X009652Y001270
X014732Y001270
X017272Y001270
X019812Y001270
X022352Y001270
X007112Y001270
X012192Y001270
X014732Y003556
X014732Y011176
X017272Y003556
X017272Y011176
X019812Y003556
X019812Y011176
X022352Y003556
X022352Y011176
X002032Y003556
X002032Y011176
X004572Y003556
X004572Y011176
X007112Y003556
X007112Y011176
X009652Y003556
X009652Y011176
X012192Y003556
X012192Y011176
M30
