G04 ---------------------------- Layer name :TOP LAYER*
G04 EasyEDA v5.7.22, Tue, 28 Aug 2018 22:53:05 GMT*
G04 1f8b3ca3c2ad4f10b54c6f686152f78d*
G04 Gerber Generator version 0.2*
G04 Scale: 100 percent, Rotated: No, Reflected: No *
G04 Dimensions in millimeters *
G04 leading zeros omitted , absolute positions ,3 integer and 3 decimal *
%FSLAX33Y33*%
%MOMM*%
G90*
G71D02*

%ADD10C,0.254000*%
%ADD11C,1.574800*%
%ADD12C,1.600200*%
%ADD13C,1.575003*%

%LPD*%
G36*
G01X2288Y508D02*
G01X2317Y529D01*
G01X2412Y613D01*
G01X2498Y706D01*
G01X2575Y807D01*
G01X2641Y915D01*
G01X2696Y1029D01*
G01X2739Y1148D01*
G01X2771Y1271D01*
G01X2790Y1397D01*
G01X2796Y1524D01*
G01X2790Y1650D01*
G01X2771Y1776D01*
G01X2739Y1899D01*
G01X2696Y2018D01*
G01X2641Y2132D01*
G01X2575Y2240D01*
G01X2498Y2341D01*
G01X2412Y2434D01*
G01X2317Y2518D01*
G01X2214Y2592D01*
G01X2104Y2656D01*
G01X1988Y2708D01*
G01X1868Y2748D01*
G01X1744Y2777D01*
G01X1619Y2792D01*
G01X1492Y2796D01*
G01X1365Y2786D01*
G01X1240Y2764D01*
G01X1118Y2730D01*
G01X1000Y2683D01*
G01X887Y2626D01*
G01X781Y2557D01*
G01X681Y2478D01*
G01X591Y2389D01*
G01X509Y2292D01*
G01X508Y2289D01*
G01X508Y23110D01*
G01X509Y23107D01*
G01X591Y23010D01*
G01X681Y22921D01*
G01X781Y22842D01*
G01X887Y22773D01*
G01X1000Y22716D01*
G01X1118Y22669D01*
G01X1240Y22635D01*
G01X1365Y22613D01*
G01X1492Y22603D01*
G01X1619Y22607D01*
G01X1744Y22622D01*
G01X1868Y22651D01*
G01X1988Y22691D01*
G01X2104Y22743D01*
G01X2214Y22807D01*
G01X2317Y22881D01*
G01X2412Y22965D01*
G01X2498Y23058D01*
G01X2575Y23159D01*
G01X2641Y23267D01*
G01X2696Y23381D01*
G01X2739Y23500D01*
G01X2771Y23623D01*
G01X2790Y23749D01*
G01X2796Y23876D01*
G01X2790Y24002D01*
G01X2771Y24128D01*
G01X2739Y24251D01*
G01X2696Y24370D01*
G01X2641Y24484D01*
G01X2575Y24592D01*
G01X2498Y24693D01*
G01X2412Y24786D01*
G01X2317Y24870D01*
G01X2288Y24892D01*
G01X3859Y24892D01*
G01X3806Y24840D01*
G01X3739Y24760D01*
G01X3681Y24674D01*
G01X3631Y24582D01*
G01X3591Y24487D01*
G01X3560Y24387D01*
G01X3539Y24285D01*
G01X3529Y24182D01*
G01X3529Y24077D01*
G01X3539Y23974D01*
G01X3560Y23872D01*
G01X3591Y23772D01*
G01X3616Y23713D01*
G01X2267Y22364D01*
G01X2215Y22376D01*
G01X2110Y22389D01*
G01X2005Y22392D01*
G01X1900Y22384D01*
G01X1796Y22366D01*
G01X1695Y22337D01*
G01X1597Y22299D01*
G01X1503Y22251D01*
G01X1415Y22193D01*
G01X1332Y22128D01*
G01X1257Y22054D01*
G01X1189Y21973D01*
G01X1130Y21886D01*
G01X1080Y21794D01*
G01X1039Y21697D01*
G01X1008Y21596D01*
G01X987Y21493D01*
G01X976Y21388D01*
G01X976Y21283D01*
G01X987Y21178D01*
G01X1008Y21075D01*
G01X1039Y20974D01*
G01X1080Y20877D01*
G01X1130Y20785D01*
G01X1189Y20698D01*
G01X1257Y20617D01*
G01X1332Y20543D01*
G01X1415Y20478D01*
G01X1503Y20420D01*
G01X1597Y20372D01*
G01X1695Y20334D01*
G01X1796Y20305D01*
G01X1900Y20287D01*
G01X2005Y20279D01*
G01X2110Y20282D01*
G01X2215Y20295D01*
G01X2318Y20318D01*
G01X2418Y20352D01*
G01X2514Y20395D01*
G01X2605Y20448D01*
G01X2690Y20509D01*
G01X2769Y20579D01*
G01X2841Y20656D01*
G01X2905Y20740D01*
G01X2959Y20830D01*
G01X3005Y20925D01*
G01X3041Y21024D01*
G01X3067Y21126D01*
G01X3083Y21230D01*
G01X3088Y21336D01*
G01X3083Y21441D01*
G01X3067Y21545D01*
G01X3041Y21647D01*
G01X3005Y21746D01*
G01X2959Y21841D01*
G01X2907Y21926D01*
G01X4154Y23173D01*
G01X4239Y23140D01*
G01X4339Y23112D01*
G01X4442Y23094D01*
G01X4545Y23086D01*
G01X4650Y23088D01*
G01X4753Y23101D01*
G01X4854Y23125D01*
G01X4953Y23158D01*
G01X5048Y23201D01*
G01X5138Y23253D01*
G01X5222Y23313D01*
G01X5300Y23382D01*
G01X5371Y23458D01*
G01X5434Y23541D01*
G01X5488Y23630D01*
G01X5533Y23724D01*
G01X5569Y23822D01*
G01X5595Y23923D01*
G01X5610Y24026D01*
G01X5615Y24130D01*
G01X5610Y24233D01*
G01X5595Y24336D01*
G01X5569Y24437D01*
G01X5533Y24535D01*
G01X5488Y24629D01*
G01X5434Y24718D01*
G01X5371Y24801D01*
G01X5300Y24877D01*
G01X5284Y24892D01*
G01X6399Y24892D01*
G01X6346Y24840D01*
G01X6279Y24760D01*
G01X6221Y24674D01*
G01X6171Y24582D01*
G01X6131Y24487D01*
G01X6100Y24387D01*
G01X6079Y24285D01*
G01X6069Y24182D01*
G01X6069Y24077D01*
G01X6079Y23974D01*
G01X6100Y23872D01*
G01X6131Y23772D01*
G01X6156Y23713D01*
G01X4807Y22364D01*
G01X4755Y22376D01*
G01X4650Y22389D01*
G01X4545Y22392D01*
G01X4440Y22384D01*
G01X4336Y22366D01*
G01X4235Y22337D01*
G01X4137Y22299D01*
G01X4043Y22251D01*
G01X3955Y22193D01*
G01X3872Y22128D01*
G01X3797Y22054D01*
G01X3729Y21973D01*
G01X3670Y21886D01*
G01X3620Y21794D01*
G01X3579Y21697D01*
G01X3548Y21596D01*
G01X3527Y21493D01*
G01X3516Y21388D01*
G01X3516Y21283D01*
G01X3527Y21178D01*
G01X3548Y21075D01*
G01X3579Y20974D01*
G01X3620Y20877D01*
G01X3670Y20785D01*
G01X3729Y20698D01*
G01X3797Y20617D01*
G01X3872Y20543D01*
G01X3955Y20478D01*
G01X4043Y20420D01*
G01X4137Y20372D01*
G01X4235Y20334D01*
G01X4336Y20305D01*
G01X4440Y20287D01*
G01X4545Y20279D01*
G01X4650Y20282D01*
G01X4755Y20295D01*
G01X4858Y20318D01*
G01X4958Y20352D01*
G01X5054Y20395D01*
G01X5145Y20448D01*
G01X5230Y20509D01*
G01X5309Y20579D01*
G01X5381Y20656D01*
G01X5445Y20740D01*
G01X5499Y20830D01*
G01X5545Y20925D01*
G01X5581Y21024D01*
G01X5607Y21126D01*
G01X5623Y21230D01*
G01X5628Y21336D01*
G01X5623Y21441D01*
G01X5607Y21545D01*
G01X5581Y21647D01*
G01X5545Y21746D01*
G01X5499Y21841D01*
G01X5447Y21926D01*
G01X6694Y23173D01*
G01X6779Y23140D01*
G01X6879Y23112D01*
G01X6982Y23094D01*
G01X7085Y23086D01*
G01X7190Y23088D01*
G01X7293Y23101D01*
G01X7394Y23125D01*
G01X7493Y23158D01*
G01X7588Y23201D01*
G01X7678Y23253D01*
G01X7762Y23313D01*
G01X7840Y23382D01*
G01X7911Y23458D01*
G01X7974Y23541D01*
G01X8028Y23630D01*
G01X8073Y23724D01*
G01X8109Y23822D01*
G01X8135Y23923D01*
G01X8150Y24026D01*
G01X8155Y24130D01*
G01X8150Y24233D01*
G01X8135Y24336D01*
G01X8109Y24437D01*
G01X8073Y24535D01*
G01X8028Y24629D01*
G01X7974Y24718D01*
G01X7911Y24801D01*
G01X7840Y24877D01*
G01X7824Y24892D01*
G01X8939Y24892D01*
G01X8886Y24840D01*
G01X8819Y24760D01*
G01X8761Y24674D01*
G01X8711Y24582D01*
G01X8671Y24487D01*
G01X8640Y24387D01*
G01X8619Y24285D01*
G01X8609Y24182D01*
G01X8609Y24077D01*
G01X8619Y23974D01*
G01X8640Y23872D01*
G01X8671Y23772D01*
G01X8696Y23713D01*
G01X7347Y22364D01*
G01X7295Y22376D01*
G01X7190Y22389D01*
G01X7085Y22392D01*
G01X6980Y22384D01*
G01X6876Y22366D01*
G01X6775Y22337D01*
G01X6677Y22299D01*
G01X6583Y22251D01*
G01X6495Y22193D01*
G01X6412Y22128D01*
G01X6337Y22054D01*
G01X6269Y21973D01*
G01X6210Y21886D01*
G01X6160Y21794D01*
G01X6119Y21697D01*
G01X6088Y21596D01*
G01X6067Y21493D01*
G01X6056Y21388D01*
G01X6056Y21283D01*
G01X6067Y21178D01*
G01X6088Y21075D01*
G01X6119Y20974D01*
G01X6160Y20877D01*
G01X6210Y20785D01*
G01X6269Y20698D01*
G01X6337Y20617D01*
G01X6412Y20543D01*
G01X6495Y20478D01*
G01X6583Y20420D01*
G01X6677Y20372D01*
G01X6775Y20334D01*
G01X6876Y20305D01*
G01X6980Y20287D01*
G01X7085Y20279D01*
G01X7190Y20282D01*
G01X7295Y20295D01*
G01X7398Y20318D01*
G01X7498Y20352D01*
G01X7594Y20395D01*
G01X7685Y20448D01*
G01X7770Y20509D01*
G01X7849Y20579D01*
G01X7921Y20656D01*
G01X7985Y20740D01*
G01X8039Y20830D01*
G01X8085Y20925D01*
G01X8121Y21024D01*
G01X8147Y21126D01*
G01X8163Y21230D01*
G01X8168Y21336D01*
G01X8163Y21441D01*
G01X8147Y21545D01*
G01X8121Y21647D01*
G01X8085Y21746D01*
G01X8039Y21841D01*
G01X7987Y21926D01*
G01X9234Y23173D01*
G01X9319Y23140D01*
G01X9419Y23112D01*
G01X9522Y23094D01*
G01X9625Y23086D01*
G01X9730Y23088D01*
G01X9833Y23101D01*
G01X9934Y23125D01*
G01X10033Y23158D01*
G01X10128Y23201D01*
G01X10218Y23253D01*
G01X10302Y23313D01*
G01X10380Y23382D01*
G01X10451Y23458D01*
G01X10514Y23541D01*
G01X10568Y23630D01*
G01X10613Y23724D01*
G01X10649Y23822D01*
G01X10675Y23923D01*
G01X10690Y24026D01*
G01X10695Y24130D01*
G01X10690Y24233D01*
G01X10675Y24336D01*
G01X10649Y24437D01*
G01X10613Y24535D01*
G01X10568Y24629D01*
G01X10514Y24718D01*
G01X10451Y24801D01*
G01X10380Y24877D01*
G01X10364Y24892D01*
G01X11479Y24892D01*
G01X11426Y24840D01*
G01X11359Y24760D01*
G01X11301Y24674D01*
G01X11251Y24582D01*
G01X11211Y24487D01*
G01X11180Y24387D01*
G01X11159Y24285D01*
G01X11149Y24182D01*
G01X11149Y24077D01*
G01X11159Y23974D01*
G01X11180Y23872D01*
G01X11211Y23772D01*
G01X11236Y23713D01*
G01X9887Y22364D01*
G01X9835Y22376D01*
G01X9730Y22389D01*
G01X9625Y22392D01*
G01X9520Y22384D01*
G01X9416Y22366D01*
G01X9315Y22337D01*
G01X9217Y22299D01*
G01X9123Y22251D01*
G01X9035Y22193D01*
G01X8952Y22128D01*
G01X8877Y22054D01*
G01X8809Y21973D01*
G01X8750Y21886D01*
G01X8700Y21794D01*
G01X8659Y21697D01*
G01X8628Y21596D01*
G01X8607Y21493D01*
G01X8596Y21388D01*
G01X8596Y21283D01*
G01X8607Y21178D01*
G01X8628Y21075D01*
G01X8659Y20974D01*
G01X8700Y20877D01*
G01X8750Y20785D01*
G01X8809Y20698D01*
G01X8877Y20617D01*
G01X8952Y20543D01*
G01X9035Y20478D01*
G01X9123Y20420D01*
G01X9217Y20372D01*
G01X9315Y20334D01*
G01X9416Y20305D01*
G01X9520Y20287D01*
G01X9625Y20279D01*
G01X9730Y20282D01*
G01X9835Y20295D01*
G01X9938Y20318D01*
G01X10038Y20352D01*
G01X10134Y20395D01*
G01X10225Y20448D01*
G01X10310Y20509D01*
G01X10389Y20579D01*
G01X10461Y20656D01*
G01X10525Y20740D01*
G01X10579Y20830D01*
G01X10625Y20925D01*
G01X10661Y21024D01*
G01X10687Y21126D01*
G01X10703Y21230D01*
G01X10708Y21336D01*
G01X10703Y21441D01*
G01X10687Y21545D01*
G01X10661Y21647D01*
G01X10625Y21746D01*
G01X10579Y21841D01*
G01X10527Y21926D01*
G01X11774Y23173D01*
G01X11859Y23140D01*
G01X11959Y23112D01*
G01X12062Y23094D01*
G01X12165Y23086D01*
G01X12270Y23088D01*
G01X12373Y23101D01*
G01X12474Y23125D01*
G01X12573Y23158D01*
G01X12668Y23201D01*
G01X12758Y23253D01*
G01X12842Y23313D01*
G01X12920Y23382D01*
G01X12991Y23458D01*
G01X13054Y23541D01*
G01X13108Y23630D01*
G01X13153Y23724D01*
G01X13189Y23822D01*
G01X13215Y23923D01*
G01X13230Y24026D01*
G01X13235Y24130D01*
G01X13230Y24233D01*
G01X13215Y24336D01*
G01X13189Y24437D01*
G01X13153Y24535D01*
G01X13108Y24629D01*
G01X13054Y24718D01*
G01X12991Y24801D01*
G01X12920Y24877D01*
G01X12904Y24892D01*
G01X14019Y24892D01*
G01X13966Y24840D01*
G01X13899Y24760D01*
G01X13841Y24674D01*
G01X13791Y24582D01*
G01X13751Y24487D01*
G01X13720Y24387D01*
G01X13699Y24285D01*
G01X13689Y24182D01*
G01X13689Y24077D01*
G01X13699Y23974D01*
G01X13720Y23872D01*
G01X13751Y23772D01*
G01X13776Y23713D01*
G01X12427Y22364D01*
G01X12375Y22376D01*
G01X12270Y22389D01*
G01X12165Y22392D01*
G01X12060Y22384D01*
G01X11956Y22366D01*
G01X11855Y22337D01*
G01X11757Y22299D01*
G01X11663Y22251D01*
G01X11575Y22193D01*
G01X11492Y22128D01*
G01X11417Y22054D01*
G01X11349Y21973D01*
G01X11290Y21886D01*
G01X11240Y21794D01*
G01X11199Y21697D01*
G01X11168Y21596D01*
G01X11147Y21493D01*
G01X11136Y21388D01*
G01X11136Y21283D01*
G01X11147Y21178D01*
G01X11168Y21075D01*
G01X11199Y20974D01*
G01X11240Y20877D01*
G01X11290Y20785D01*
G01X11349Y20698D01*
G01X11417Y20617D01*
G01X11492Y20543D01*
G01X11575Y20478D01*
G01X11663Y20420D01*
G01X11757Y20372D01*
G01X11855Y20334D01*
G01X11956Y20305D01*
G01X12060Y20287D01*
G01X12165Y20279D01*
G01X12270Y20282D01*
G01X12375Y20295D01*
G01X12478Y20318D01*
G01X12578Y20352D01*
G01X12674Y20395D01*
G01X12765Y20448D01*
G01X12850Y20509D01*
G01X12929Y20579D01*
G01X13001Y20656D01*
G01X13065Y20740D01*
G01X13119Y20830D01*
G01X13165Y20925D01*
G01X13201Y21024D01*
G01X13227Y21126D01*
G01X13243Y21230D01*
G01X13248Y21336D01*
G01X13243Y21441D01*
G01X13227Y21545D01*
G01X13201Y21647D01*
G01X13165Y21746D01*
G01X13119Y21841D01*
G01X13067Y21926D01*
G01X14314Y23173D01*
G01X14399Y23140D01*
G01X14499Y23112D01*
G01X14602Y23094D01*
G01X14705Y23086D01*
G01X14810Y23088D01*
G01X14913Y23101D01*
G01X15014Y23125D01*
G01X15113Y23158D01*
G01X15208Y23201D01*
G01X15298Y23253D01*
G01X15382Y23313D01*
G01X15460Y23382D01*
G01X15531Y23458D01*
G01X15594Y23541D01*
G01X15648Y23630D01*
G01X15693Y23724D01*
G01X15729Y23822D01*
G01X15755Y23923D01*
G01X15770Y24026D01*
G01X15775Y24130D01*
G01X15770Y24233D01*
G01X15755Y24336D01*
G01X15729Y24437D01*
G01X15693Y24535D01*
G01X15648Y24629D01*
G01X15594Y24718D01*
G01X15531Y24801D01*
G01X15460Y24877D01*
G01X15444Y24892D01*
G01X16559Y24892D01*
G01X16506Y24840D01*
G01X16439Y24760D01*
G01X16381Y24674D01*
G01X16331Y24582D01*
G01X16291Y24487D01*
G01X16260Y24387D01*
G01X16239Y24285D01*
G01X16229Y24182D01*
G01X16229Y24077D01*
G01X16239Y23974D01*
G01X16260Y23872D01*
G01X16291Y23772D01*
G01X16316Y23713D01*
G01X14967Y22364D01*
G01X14915Y22376D01*
G01X14810Y22389D01*
G01X14705Y22392D01*
G01X14600Y22384D01*
G01X14496Y22366D01*
G01X14395Y22337D01*
G01X14297Y22299D01*
G01X14203Y22251D01*
G01X14115Y22193D01*
G01X14032Y22128D01*
G01X13957Y22054D01*
G01X13889Y21973D01*
G01X13830Y21886D01*
G01X13780Y21794D01*
G01X13739Y21697D01*
G01X13708Y21596D01*
G01X13687Y21493D01*
G01X13676Y21388D01*
G01X13676Y21283D01*
G01X13687Y21178D01*
G01X13708Y21075D01*
G01X13739Y20974D01*
G01X13780Y20877D01*
G01X13830Y20785D01*
G01X13889Y20698D01*
G01X13957Y20617D01*
G01X14032Y20543D01*
G01X14115Y20478D01*
G01X14203Y20420D01*
G01X14297Y20372D01*
G01X14395Y20334D01*
G01X14496Y20305D01*
G01X14600Y20287D01*
G01X14705Y20279D01*
G01X14810Y20282D01*
G01X14915Y20295D01*
G01X15018Y20318D01*
G01X15118Y20352D01*
G01X15214Y20395D01*
G01X15305Y20448D01*
G01X15390Y20509D01*
G01X15469Y20579D01*
G01X15541Y20656D01*
G01X15605Y20740D01*
G01X15659Y20830D01*
G01X15705Y20925D01*
G01X15741Y21024D01*
G01X15767Y21126D01*
G01X15783Y21230D01*
G01X15788Y21336D01*
G01X15783Y21441D01*
G01X15767Y21545D01*
G01X15741Y21647D01*
G01X15705Y21746D01*
G01X15659Y21841D01*
G01X15607Y21926D01*
G01X16854Y23173D01*
G01X16939Y23140D01*
G01X17039Y23112D01*
G01X17142Y23094D01*
G01X17245Y23086D01*
G01X17350Y23088D01*
G01X17453Y23101D01*
G01X17554Y23125D01*
G01X17653Y23158D01*
G01X17748Y23201D01*
G01X17838Y23253D01*
G01X17922Y23313D01*
G01X18000Y23382D01*
G01X18071Y23458D01*
G01X18134Y23541D01*
G01X18188Y23630D01*
G01X18233Y23724D01*
G01X18269Y23822D01*
G01X18295Y23923D01*
G01X18310Y24026D01*
G01X18315Y24130D01*
G01X18310Y24233D01*
G01X18295Y24336D01*
G01X18269Y24437D01*
G01X18233Y24535D01*
G01X18188Y24629D01*
G01X18134Y24718D01*
G01X18071Y24801D01*
G01X18000Y24877D01*
G01X17984Y24892D01*
G01X19099Y24892D01*
G01X19046Y24840D01*
G01X18979Y24760D01*
G01X18921Y24674D01*
G01X18871Y24582D01*
G01X18831Y24487D01*
G01X18800Y24387D01*
G01X18779Y24285D01*
G01X18769Y24182D01*
G01X18769Y24077D01*
G01X18779Y23974D01*
G01X18800Y23872D01*
G01X18831Y23772D01*
G01X18856Y23713D01*
G01X17507Y22364D01*
G01X17455Y22376D01*
G01X17350Y22389D01*
G01X17245Y22392D01*
G01X17140Y22384D01*
G01X17036Y22366D01*
G01X16935Y22337D01*
G01X16837Y22299D01*
G01X16743Y22251D01*
G01X16655Y22193D01*
G01X16572Y22128D01*
G01X16497Y22054D01*
G01X16429Y21973D01*
G01X16370Y21886D01*
G01X16320Y21794D01*
G01X16279Y21697D01*
G01X16248Y21596D01*
G01X16227Y21493D01*
G01X16216Y21388D01*
G01X16216Y21283D01*
G01X16227Y21178D01*
G01X16248Y21075D01*
G01X16279Y20974D01*
G01X16320Y20877D01*
G01X16370Y20785D01*
G01X16429Y20698D01*
G01X16497Y20617D01*
G01X16572Y20543D01*
G01X16655Y20478D01*
G01X16743Y20420D01*
G01X16837Y20372D01*
G01X16935Y20334D01*
G01X17036Y20305D01*
G01X17140Y20287D01*
G01X17245Y20279D01*
G01X17350Y20282D01*
G01X17455Y20295D01*
G01X17558Y20318D01*
G01X17658Y20352D01*
G01X17754Y20395D01*
G01X17845Y20448D01*
G01X17930Y20509D01*
G01X18009Y20579D01*
G01X18081Y20656D01*
G01X18145Y20740D01*
G01X18199Y20830D01*
G01X18245Y20925D01*
G01X18281Y21024D01*
G01X18307Y21126D01*
G01X18323Y21230D01*
G01X18328Y21336D01*
G01X18323Y21441D01*
G01X18307Y21545D01*
G01X18281Y21647D01*
G01X18245Y21746D01*
G01X18199Y21841D01*
G01X18147Y21926D01*
G01X19394Y23173D01*
G01X19479Y23140D01*
G01X19579Y23112D01*
G01X19682Y23094D01*
G01X19785Y23086D01*
G01X19890Y23088D01*
G01X19993Y23101D01*
G01X20094Y23125D01*
G01X20193Y23158D01*
G01X20288Y23201D01*
G01X20378Y23253D01*
G01X20462Y23313D01*
G01X20540Y23382D01*
G01X20611Y23458D01*
G01X20674Y23541D01*
G01X20728Y23630D01*
G01X20773Y23724D01*
G01X20809Y23822D01*
G01X20835Y23923D01*
G01X20850Y24026D01*
G01X20855Y24130D01*
G01X20850Y24233D01*
G01X20835Y24336D01*
G01X20809Y24437D01*
G01X20773Y24535D01*
G01X20728Y24629D01*
G01X20674Y24718D01*
G01X20611Y24801D01*
G01X20540Y24877D01*
G01X20524Y24892D01*
G01X21639Y24892D01*
G01X21586Y24840D01*
G01X21519Y24760D01*
G01X21461Y24674D01*
G01X21411Y24582D01*
G01X21371Y24487D01*
G01X21340Y24387D01*
G01X21319Y24285D01*
G01X21309Y24182D01*
G01X21309Y24077D01*
G01X21319Y23974D01*
G01X21340Y23872D01*
G01X21371Y23772D01*
G01X21396Y23713D01*
G01X20047Y22364D01*
G01X19995Y22376D01*
G01X19890Y22389D01*
G01X19785Y22392D01*
G01X19680Y22384D01*
G01X19576Y22366D01*
G01X19475Y22337D01*
G01X19377Y22299D01*
G01X19283Y22251D01*
G01X19195Y22193D01*
G01X19112Y22128D01*
G01X19037Y22054D01*
G01X18969Y21973D01*
G01X18910Y21886D01*
G01X18860Y21794D01*
G01X18819Y21697D01*
G01X18788Y21596D01*
G01X18767Y21493D01*
G01X18756Y21388D01*
G01X18756Y21283D01*
G01X18767Y21178D01*
G01X18788Y21075D01*
G01X18819Y20974D01*
G01X18860Y20877D01*
G01X18910Y20785D01*
G01X18969Y20698D01*
G01X19037Y20617D01*
G01X19112Y20543D01*
G01X19195Y20478D01*
G01X19283Y20420D01*
G01X19377Y20372D01*
G01X19475Y20334D01*
G01X19576Y20305D01*
G01X19680Y20287D01*
G01X19785Y20279D01*
G01X19890Y20282D01*
G01X19995Y20295D01*
G01X20098Y20318D01*
G01X20198Y20352D01*
G01X20294Y20395D01*
G01X20385Y20448D01*
G01X20470Y20509D01*
G01X20549Y20579D01*
G01X20621Y20656D01*
G01X20685Y20740D01*
G01X20739Y20830D01*
G01X20785Y20925D01*
G01X20821Y21024D01*
G01X20847Y21126D01*
G01X20863Y21230D01*
G01X20868Y21336D01*
G01X20863Y21441D01*
G01X20847Y21545D01*
G01X20821Y21647D01*
G01X20785Y21746D01*
G01X20739Y21841D01*
G01X20687Y21926D01*
G01X21934Y23173D01*
G01X22019Y23140D01*
G01X22119Y23112D01*
G01X22222Y23094D01*
G01X22325Y23086D01*
G01X22430Y23088D01*
G01X22533Y23101D01*
G01X22634Y23125D01*
G01X22733Y23158D01*
G01X22828Y23201D01*
G01X22918Y23253D01*
G01X23002Y23313D01*
G01X23080Y23382D01*
G01X23151Y23458D01*
G01X23214Y23541D01*
G01X23268Y23630D01*
G01X23313Y23724D01*
G01X23349Y23822D01*
G01X23375Y23923D01*
G01X23390Y24026D01*
G01X23395Y24130D01*
G01X23390Y24233D01*
G01X23375Y24336D01*
G01X23349Y24437D01*
G01X23313Y24535D01*
G01X23268Y24629D01*
G01X23214Y24718D01*
G01X23151Y24801D01*
G01X23080Y24877D01*
G01X23064Y24892D01*
G01X24179Y24892D01*
G01X24126Y24840D01*
G01X24059Y24760D01*
G01X24001Y24674D01*
G01X23951Y24582D01*
G01X23911Y24487D01*
G01X23880Y24387D01*
G01X23859Y24285D01*
G01X23849Y24182D01*
G01X23849Y24077D01*
G01X23859Y23974D01*
G01X23880Y23872D01*
G01X23911Y23772D01*
G01X23951Y23677D01*
G01X24001Y23585D01*
G01X24059Y23499D01*
G01X24126Y23419D01*
G01X24201Y23347D01*
G01X24282Y23282D01*
G01X24370Y23225D01*
G01X24462Y23178D01*
G01X24559Y23140D01*
G01X24659Y23112D01*
G01X24762Y23094D01*
G01X24865Y23086D01*
G01X24970Y23088D01*
G01X25073Y23101D01*
G01X25174Y23125D01*
G01X25273Y23158D01*
G01X25368Y23201D01*
G01X25458Y23253D01*
G01X25542Y23313D01*
G01X25620Y23382D01*
G01X25691Y23458D01*
G01X25754Y23541D01*
G01X25808Y23630D01*
G01X25853Y23724D01*
G01X25889Y23822D01*
G01X25915Y23923D01*
G01X25930Y24026D01*
G01X25935Y24130D01*
G01X25930Y24233D01*
G01X25915Y24336D01*
G01X25889Y24437D01*
G01X25853Y24535D01*
G01X25808Y24629D01*
G01X25754Y24718D01*
G01X25691Y24801D01*
G01X25620Y24877D01*
G01X25604Y24892D01*
G01X26719Y24892D01*
G01X26666Y24840D01*
G01X26599Y24760D01*
G01X26541Y24674D01*
G01X26491Y24582D01*
G01X26451Y24487D01*
G01X26420Y24387D01*
G01X26399Y24285D01*
G01X26389Y24182D01*
G01X26389Y24077D01*
G01X26399Y23974D01*
G01X26420Y23872D01*
G01X26451Y23772D01*
G01X26491Y23677D01*
G01X26541Y23585D01*
G01X26599Y23499D01*
G01X26666Y23419D01*
G01X26741Y23347D01*
G01X26822Y23282D01*
G01X26910Y23225D01*
G01X27002Y23178D01*
G01X27099Y23140D01*
G01X27199Y23112D01*
G01X27302Y23094D01*
G01X27405Y23086D01*
G01X27510Y23088D01*
G01X27613Y23101D01*
G01X27714Y23125D01*
G01X27813Y23158D01*
G01X27908Y23201D01*
G01X27998Y23253D01*
G01X28082Y23313D01*
G01X28160Y23382D01*
G01X28231Y23458D01*
G01X28294Y23541D01*
G01X28348Y23630D01*
G01X28393Y23724D01*
G01X28429Y23822D01*
G01X28455Y23923D01*
G01X28470Y24026D01*
G01X28475Y24130D01*
G01X28470Y24233D01*
G01X28455Y24336D01*
G01X28429Y24437D01*
G01X28393Y24535D01*
G01X28348Y24629D01*
G01X28294Y24718D01*
G01X28231Y24801D01*
G01X28160Y24877D01*
G01X28144Y24892D01*
G01X29259Y24892D01*
G01X29206Y24840D01*
G01X29139Y24760D01*
G01X29081Y24674D01*
G01X29031Y24582D01*
G01X28991Y24487D01*
G01X28960Y24387D01*
G01X28939Y24285D01*
G01X28929Y24182D01*
G01X28929Y24077D01*
G01X28939Y23974D01*
G01X28960Y23872D01*
G01X28991Y23772D01*
G01X29031Y23677D01*
G01X29081Y23585D01*
G01X29139Y23499D01*
G01X29206Y23419D01*
G01X29281Y23347D01*
G01X29362Y23282D01*
G01X29450Y23225D01*
G01X29542Y23178D01*
G01X29591Y23159D01*
G01X29591Y8285D01*
G01X28366Y7061D01*
G01X28326Y7079D01*
G01X28226Y7113D01*
G01X28123Y7136D01*
G01X28018Y7149D01*
G01X27913Y7152D01*
G01X27808Y7144D01*
G01X27704Y7126D01*
G01X27603Y7097D01*
G01X27505Y7059D01*
G01X27411Y7011D01*
G01X27323Y6953D01*
G01X27240Y6888D01*
G01X27165Y6814D01*
G01X27097Y6733D01*
G01X27038Y6646D01*
G01X26988Y6554D01*
G01X26947Y6457D01*
G01X26916Y6356D01*
G01X26895Y6253D01*
G01X26884Y6148D01*
G01X26884Y6043D01*
G01X26895Y5938D01*
G01X26916Y5835D01*
G01X26947Y5734D01*
G01X26988Y5637D01*
G01X27038Y5545D01*
G01X27097Y5458D01*
G01X27165Y5377D01*
G01X27240Y5303D01*
G01X27323Y5238D01*
G01X27411Y5180D01*
G01X27505Y5132D01*
G01X27603Y5094D01*
G01X27704Y5065D01*
G01X27808Y5047D01*
G01X27913Y5039D01*
G01X28018Y5042D01*
G01X28123Y5055D01*
G01X28226Y5078D01*
G01X28326Y5112D01*
G01X28422Y5155D01*
G01X28513Y5208D01*
G01X28598Y5269D01*
G01X28677Y5339D01*
G01X28749Y5416D01*
G01X28813Y5500D01*
G01X28867Y5590D01*
G01X28913Y5685D01*
G01X28949Y5784D01*
G01X28975Y5886D01*
G01X28991Y5990D01*
G01X28996Y6096D01*
G01X28991Y6201D01*
G01X28975Y6305D01*
G01X28949Y6407D01*
G01X28913Y6506D01*
G01X28905Y6522D01*
G01X30241Y7858D01*
G01X30250Y7867D01*
G01X30259Y7877D01*
G01X30267Y7887D01*
G01X30275Y7897D01*
G01X30283Y7908D01*
G01X30290Y7919D01*
G01X30297Y7930D01*
G01X30304Y7941D01*
G01X30310Y7952D01*
G01X30316Y7964D01*
G01X30321Y7976D01*
G01X30326Y7988D01*
G01X30331Y8000D01*
G01X30335Y8012D01*
G01X30338Y8025D01*
G01X30342Y8037D01*
G01X30345Y8050D01*
G01X30347Y8063D01*
G01X30349Y8076D01*
G01X30350Y8089D01*
G01X30352Y8101D01*
G01X30352Y8114D01*
G01X30353Y8128D01*
G01X30353Y23158D01*
G01X30353Y23158D01*
G01X30448Y23201D01*
G01X30538Y23253D01*
G01X30622Y23313D01*
G01X30700Y23382D01*
G01X30771Y23458D01*
G01X30834Y23541D01*
G01X30888Y23630D01*
G01X30933Y23724D01*
G01X30969Y23822D01*
G01X30995Y23923D01*
G01X31010Y24026D01*
G01X31015Y24130D01*
G01X31010Y24233D01*
G01X30995Y24336D01*
G01X30969Y24437D01*
G01X30933Y24535D01*
G01X30888Y24629D01*
G01X30834Y24718D01*
G01X30771Y24801D01*
G01X30700Y24877D01*
G01X30684Y24892D01*
G01X35049Y24892D01*
G01X34971Y24830D01*
G01X34881Y24741D01*
G01X34799Y24644D01*
G01X34728Y24539D01*
G01X34667Y24428D01*
G01X34618Y24311D01*
G01X34580Y24190D01*
G01X34555Y24065D01*
G01X34543Y23939D01*
G01X34543Y23812D01*
G01X34555Y23686D01*
G01X34580Y23561D01*
G01X34618Y23440D01*
G01X34667Y23323D01*
G01X34728Y23212D01*
G01X34799Y23107D01*
G01X34881Y23010D01*
G01X34971Y22921D01*
G01X35071Y22842D01*
G01X35177Y22773D01*
G01X35290Y22716D01*
G01X35408Y22669D01*
G01X35530Y22635D01*
G01X35655Y22613D01*
G01X35782Y22603D01*
G01X35909Y22607D01*
G01X36034Y22622D01*
G01X36158Y22651D01*
G01X36278Y22691D01*
G01X36394Y22743D01*
G01X36504Y22807D01*
G01X36607Y22881D01*
G01X36702Y22965D01*
G01X36788Y23058D01*
G01X36830Y23112D01*
G01X36830Y2287D01*
G01X36788Y2341D01*
G01X36702Y2434D01*
G01X36607Y2518D01*
G01X36504Y2592D01*
G01X36394Y2656D01*
G01X36278Y2708D01*
G01X36158Y2748D01*
G01X36034Y2777D01*
G01X35909Y2792D01*
G01X35782Y2796D01*
G01X35655Y2786D01*
G01X35530Y2764D01*
G01X35408Y2730D01*
G01X35290Y2683D01*
G01X35177Y2626D01*
G01X35071Y2557D01*
G01X34971Y2478D01*
G01X34881Y2389D01*
G01X34799Y2292D01*
G01X34728Y2187D01*
G01X34667Y2076D01*
G01X34618Y1959D01*
G01X34580Y1838D01*
G01X34555Y1713D01*
G01X34543Y1587D01*
G01X34543Y1460D01*
G01X34555Y1334D01*
G01X34580Y1209D01*
G01X34618Y1088D01*
G01X34667Y971D01*
G01X34728Y860D01*
G01X34799Y755D01*
G01X34881Y658D01*
G01X34971Y569D01*
G01X35049Y508D01*
G01X25604Y508D01*
G01X25620Y522D01*
G01X25691Y598D01*
G01X25754Y681D01*
G01X25808Y770D01*
G01X25853Y864D01*
G01X25889Y962D01*
G01X25915Y1063D01*
G01X25930Y1166D01*
G01X25935Y1270D01*
G01X25930Y1373D01*
G01X25915Y1476D01*
G01X25889Y1577D01*
G01X25853Y1675D01*
G01X25808Y1769D01*
G01X25754Y1858D01*
G01X25691Y1941D01*
G01X25620Y2017D01*
G01X25542Y2086D01*
G01X25458Y2146D01*
G01X25368Y2198D01*
G01X25273Y2241D01*
G01X25174Y2274D01*
G01X25073Y2298D01*
G01X24970Y2311D01*
G01X24865Y2313D01*
G01X24762Y2305D01*
G01X24659Y2287D01*
G01X24559Y2259D01*
G01X24474Y2226D01*
G01X23370Y3330D01*
G01X23375Y3349D01*
G01X23390Y3452D01*
G01X23396Y3556D01*
G01X23390Y3659D01*
G01X23375Y3762D01*
G01X23349Y3863D01*
G01X23314Y3961D01*
G01X23268Y4055D01*
G01X23214Y4144D01*
G01X23151Y4227D01*
G01X23080Y4303D01*
G01X23002Y4372D01*
G01X22918Y4433D01*
G01X22828Y4485D01*
G01X22733Y4527D01*
G01X22634Y4561D01*
G01X22533Y4584D01*
G01X22430Y4597D01*
G01X22325Y4599D01*
G01X22222Y4591D01*
G01X22119Y4573D01*
G01X22019Y4545D01*
G01X21922Y4507D01*
G01X21829Y4460D01*
G01X21742Y4403D01*
G01X21661Y4338D01*
G01X21586Y4266D01*
G01X21519Y4186D01*
G01X21461Y4100D01*
G01X21411Y4008D01*
G01X21370Y3913D01*
G01X21340Y3813D01*
G01X21319Y3711D01*
G01X21309Y3608D01*
G01X21309Y3503D01*
G01X21319Y3400D01*
G01X21340Y3298D01*
G01X21370Y3198D01*
G01X21411Y3103D01*
G01X21461Y3011D01*
G01X21519Y2925D01*
G01X21586Y2845D01*
G01X21661Y2773D01*
G01X21742Y2708D01*
G01X21829Y2651D01*
G01X21922Y2604D01*
G01X22019Y2566D01*
G01X22119Y2538D01*
G01X22222Y2520D01*
G01X22325Y2512D01*
G01X22430Y2514D01*
G01X22533Y2527D01*
G01X22634Y2550D01*
G01X22733Y2584D01*
G01X22828Y2626D01*
G01X22918Y2678D01*
G01X22933Y2689D01*
G01X23936Y1686D01*
G01X23911Y1627D01*
G01X23880Y1527D01*
G01X23859Y1425D01*
G01X23849Y1322D01*
G01X23849Y1217D01*
G01X23859Y1114D01*
G01X23880Y1012D01*
G01X23911Y912D01*
G01X23951Y817D01*
G01X24001Y725D01*
G01X24059Y639D01*
G01X24126Y559D01*
G01X24179Y508D01*
G01X23064Y508D01*
G01X23080Y522D01*
G01X23151Y598D01*
G01X23214Y681D01*
G01X23268Y770D01*
G01X23313Y864D01*
G01X23349Y962D01*
G01X23375Y1063D01*
G01X23390Y1166D01*
G01X23395Y1270D01*
G01X23390Y1373D01*
G01X23375Y1476D01*
G01X23349Y1577D01*
G01X23313Y1675D01*
G01X23268Y1769D01*
G01X23214Y1858D01*
G01X23151Y1941D01*
G01X23080Y2017D01*
G01X23002Y2086D01*
G01X22918Y2146D01*
G01X22828Y2198D01*
G01X22733Y2241D01*
G01X22634Y2274D01*
G01X22533Y2298D01*
G01X22430Y2311D01*
G01X22325Y2313D01*
G01X22222Y2305D01*
G01X22119Y2287D01*
G01X22019Y2259D01*
G01X21934Y2226D01*
G01X20830Y3330D01*
G01X20835Y3349D01*
G01X20850Y3452D01*
G01X20856Y3556D01*
G01X20850Y3659D01*
G01X20835Y3762D01*
G01X20809Y3863D01*
G01X20774Y3961D01*
G01X20728Y4055D01*
G01X20674Y4144D01*
G01X20611Y4227D01*
G01X20540Y4303D01*
G01X20462Y4372D01*
G01X20378Y4433D01*
G01X20288Y4485D01*
G01X20193Y4527D01*
G01X20094Y4561D01*
G01X19993Y4584D01*
G01X19890Y4597D01*
G01X19785Y4599D01*
G01X19682Y4591D01*
G01X19579Y4573D01*
G01X19479Y4545D01*
G01X19382Y4507D01*
G01X19289Y4460D01*
G01X19202Y4403D01*
G01X19121Y4338D01*
G01X19046Y4266D01*
G01X18979Y4186D01*
G01X18921Y4100D01*
G01X18871Y4008D01*
G01X18830Y3913D01*
G01X18800Y3813D01*
G01X18779Y3711D01*
G01X18769Y3608D01*
G01X18769Y3503D01*
G01X18779Y3400D01*
G01X18800Y3298D01*
G01X18830Y3198D01*
G01X18871Y3103D01*
G01X18921Y3011D01*
G01X18979Y2925D01*
G01X19046Y2845D01*
G01X19121Y2773D01*
G01X19202Y2708D01*
G01X19289Y2651D01*
G01X19382Y2604D01*
G01X19479Y2566D01*
G01X19579Y2538D01*
G01X19682Y2520D01*
G01X19785Y2512D01*
G01X19890Y2514D01*
G01X19993Y2527D01*
G01X20094Y2550D01*
G01X20193Y2584D01*
G01X20288Y2626D01*
G01X20378Y2678D01*
G01X20393Y2689D01*
G01X21396Y1686D01*
G01X21371Y1627D01*
G01X21340Y1527D01*
G01X21319Y1425D01*
G01X21309Y1322D01*
G01X21309Y1217D01*
G01X21319Y1114D01*
G01X21340Y1012D01*
G01X21371Y912D01*
G01X21411Y817D01*
G01X21461Y725D01*
G01X21519Y639D01*
G01X21586Y559D01*
G01X21639Y508D01*
G01X20524Y508D01*
G01X20540Y522D01*
G01X20611Y598D01*
G01X20674Y681D01*
G01X20728Y770D01*
G01X20773Y864D01*
G01X20809Y962D01*
G01X20835Y1063D01*
G01X20850Y1166D01*
G01X20855Y1270D01*
G01X20850Y1373D01*
G01X20835Y1476D01*
G01X20809Y1577D01*
G01X20773Y1675D01*
G01X20728Y1769D01*
G01X20674Y1858D01*
G01X20611Y1941D01*
G01X20540Y2017D01*
G01X20462Y2086D01*
G01X20378Y2146D01*
G01X20288Y2198D01*
G01X20193Y2241D01*
G01X20094Y2274D01*
G01X19993Y2298D01*
G01X19890Y2311D01*
G01X19785Y2313D01*
G01X19682Y2305D01*
G01X19579Y2287D01*
G01X19479Y2259D01*
G01X19394Y2226D01*
G01X18290Y3330D01*
G01X18295Y3349D01*
G01X18310Y3452D01*
G01X18316Y3556D01*
G01X18310Y3659D01*
G01X18295Y3762D01*
G01X18269Y3863D01*
G01X18234Y3961D01*
G01X18188Y4055D01*
G01X18134Y4144D01*
G01X18071Y4227D01*
G01X18000Y4303D01*
G01X17922Y4372D01*
G01X17838Y4433D01*
G01X17748Y4485D01*
G01X17653Y4527D01*
G01X17554Y4561D01*
G01X17453Y4584D01*
G01X17350Y4597D01*
G01X17245Y4599D01*
G01X17142Y4591D01*
G01X17039Y4573D01*
G01X16939Y4545D01*
G01X16842Y4507D01*
G01X16749Y4460D01*
G01X16662Y4403D01*
G01X16581Y4338D01*
G01X16506Y4266D01*
G01X16439Y4186D01*
G01X16381Y4100D01*
G01X16331Y4008D01*
G01X16290Y3913D01*
G01X16260Y3813D01*
G01X16239Y3711D01*
G01X16229Y3608D01*
G01X16229Y3503D01*
G01X16239Y3400D01*
G01X16260Y3298D01*
G01X16290Y3198D01*
G01X16331Y3103D01*
G01X16381Y3011D01*
G01X16439Y2925D01*
G01X16506Y2845D01*
G01X16581Y2773D01*
G01X16662Y2708D01*
G01X16749Y2651D01*
G01X16842Y2604D01*
G01X16939Y2566D01*
G01X17039Y2538D01*
G01X17142Y2520D01*
G01X17245Y2512D01*
G01X17350Y2514D01*
G01X17453Y2527D01*
G01X17554Y2550D01*
G01X17653Y2584D01*
G01X17748Y2626D01*
G01X17838Y2678D01*
G01X17853Y2689D01*
G01X18856Y1686D01*
G01X18831Y1627D01*
G01X18800Y1527D01*
G01X18779Y1425D01*
G01X18769Y1322D01*
G01X18769Y1217D01*
G01X18779Y1114D01*
G01X18800Y1012D01*
G01X18831Y912D01*
G01X18871Y817D01*
G01X18921Y725D01*
G01X18979Y639D01*
G01X19046Y559D01*
G01X19099Y508D01*
G01X17984Y508D01*
G01X18000Y522D01*
G01X18071Y598D01*
G01X18134Y681D01*
G01X18188Y770D01*
G01X18233Y864D01*
G01X18269Y962D01*
G01X18295Y1063D01*
G01X18310Y1166D01*
G01X18315Y1270D01*
G01X18310Y1373D01*
G01X18295Y1476D01*
G01X18269Y1577D01*
G01X18233Y1675D01*
G01X18188Y1769D01*
G01X18134Y1858D01*
G01X18071Y1941D01*
G01X18000Y2017D01*
G01X17922Y2086D01*
G01X17838Y2146D01*
G01X17748Y2198D01*
G01X17653Y2241D01*
G01X17554Y2274D01*
G01X17453Y2298D01*
G01X17350Y2311D01*
G01X17245Y2313D01*
G01X17142Y2305D01*
G01X17039Y2287D01*
G01X16939Y2259D01*
G01X16842Y2221D01*
G01X16750Y2174D01*
G01X16690Y2135D01*
G01X15688Y3138D01*
G01X15694Y3150D01*
G01X15729Y3248D01*
G01X15755Y3349D01*
G01X15770Y3452D01*
G01X15776Y3556D01*
G01X15770Y3659D01*
G01X15755Y3762D01*
G01X15729Y3863D01*
G01X15694Y3961D01*
G01X15648Y4055D01*
G01X15594Y4144D01*
G01X15531Y4227D01*
G01X15460Y4303D01*
G01X15382Y4372D01*
G01X15298Y4433D01*
G01X15208Y4485D01*
G01X15113Y4527D01*
G01X15014Y4561D01*
G01X14913Y4584D01*
G01X14810Y4597D01*
G01X14705Y4599D01*
G01X14602Y4591D01*
G01X14499Y4573D01*
G01X14399Y4545D01*
G01X14302Y4507D01*
G01X14209Y4460D01*
G01X14122Y4403D01*
G01X14041Y4338D01*
G01X13966Y4266D01*
G01X13899Y4186D01*
G01X13843Y4103D01*
G01X13843Y9906D01*
G01X13842Y9919D01*
G01X13842Y9932D01*
G01X13840Y9944D01*
G01X13839Y9957D01*
G01X13837Y9970D01*
G01X13835Y9983D01*
G01X13832Y9996D01*
G01X13828Y10008D01*
G01X13825Y10021D01*
G01X13821Y10033D01*
G01X13816Y10045D01*
G01X13811Y10057D01*
G01X13806Y10069D01*
G01X13800Y10081D01*
G01X13794Y10092D01*
G01X13787Y10103D01*
G01X13780Y10114D01*
G01X13773Y10125D01*
G01X13765Y10136D01*
G01X13757Y10146D01*
G01X13749Y10156D01*
G01X13740Y10166D01*
G01X13731Y10175D01*
G01X13148Y10758D01*
G01X13154Y10770D01*
G01X13189Y10868D01*
G01X13215Y10969D01*
G01X13230Y11072D01*
G01X13236Y11176D01*
G01X13230Y11279D01*
G01X13215Y11382D01*
G01X13189Y11483D01*
G01X13154Y11581D01*
G01X13108Y11675D01*
G01X13054Y11764D01*
G01X12991Y11847D01*
G01X12920Y11923D01*
G01X12842Y11992D01*
G01X12758Y12053D01*
G01X12668Y12105D01*
G01X12573Y12147D01*
G01X12573Y12148D01*
G01X12573Y12730D01*
G01X12578Y12732D01*
G01X12674Y12775D01*
G01X12765Y12828D01*
G01X12850Y12889D01*
G01X12929Y12959D01*
G01X13001Y13036D01*
G01X13065Y13120D01*
G01X13119Y13210D01*
G01X13165Y13305D01*
G01X13201Y13404D01*
G01X13227Y13506D01*
G01X13243Y13610D01*
G01X13248Y13716D01*
G01X13243Y13821D01*
G01X13227Y13925D01*
G01X13201Y14027D01*
G01X13165Y14126D01*
G01X13119Y14221D01*
G01X13065Y14311D01*
G01X13001Y14395D01*
G01X12929Y14472D01*
G01X12850Y14542D01*
G01X12765Y14603D01*
G01X12674Y14656D01*
G01X12578Y14699D01*
G01X12478Y14733D01*
G01X12375Y14756D01*
G01X12270Y14769D01*
G01X12165Y14772D01*
G01X12060Y14764D01*
G01X11956Y14746D01*
G01X11855Y14717D01*
G01X11757Y14679D01*
G01X11663Y14631D01*
G01X11575Y14573D01*
G01X11492Y14508D01*
G01X11417Y14434D01*
G01X11349Y14353D01*
G01X11290Y14266D01*
G01X11240Y14174D01*
G01X11199Y14077D01*
G01X11168Y13976D01*
G01X11147Y13873D01*
G01X11136Y13768D01*
G01X11136Y13663D01*
G01X11147Y13558D01*
G01X11168Y13455D01*
G01X11199Y13354D01*
G01X11240Y13257D01*
G01X11290Y13165D01*
G01X11349Y13078D01*
G01X11417Y12997D01*
G01X11492Y12923D01*
G01X11575Y12858D01*
G01X11663Y12800D01*
G01X11757Y12752D01*
G01X11811Y12731D01*
G01X11811Y12146D01*
G01X11762Y12127D01*
G01X11669Y12080D01*
G01X11582Y12023D01*
G01X11501Y11958D01*
G01X11426Y11886D01*
G01X11359Y11806D01*
G01X11301Y11720D01*
G01X11251Y11628D01*
G01X11210Y11533D01*
G01X11180Y11433D01*
G01X11159Y11331D01*
G01X11149Y11228D01*
G01X11149Y11123D01*
G01X11159Y11020D01*
G01X11180Y10918D01*
G01X11210Y10818D01*
G01X11251Y10723D01*
G01X11301Y10631D01*
G01X11359Y10545D01*
G01X11426Y10465D01*
G01X11501Y10393D01*
G01X11582Y10328D01*
G01X11669Y10271D01*
G01X11762Y10224D01*
G01X11859Y10186D01*
G01X11959Y10158D01*
G01X12062Y10140D01*
G01X12165Y10132D01*
G01X12270Y10134D01*
G01X12373Y10147D01*
G01X12474Y10170D01*
G01X12573Y10204D01*
G01X12608Y10220D01*
G01X13081Y9748D01*
G01X13081Y2540D01*
G01X13081Y2526D01*
G01X13081Y2513D01*
G01X13083Y2501D01*
G01X13084Y2488D01*
G01X13086Y2475D01*
G01X13088Y2462D01*
G01X13091Y2449D01*
G01X13095Y2437D01*
G01X13098Y2424D01*
G01X13102Y2412D01*
G01X13107Y2400D01*
G01X13112Y2388D01*
G01X13117Y2376D01*
G01X13123Y2364D01*
G01X13129Y2353D01*
G01X13136Y2342D01*
G01X13143Y2331D01*
G01X13150Y2320D01*
G01X13158Y2309D01*
G01X13166Y2299D01*
G01X13174Y2289D01*
G01X13183Y2279D01*
G01X13192Y2270D01*
G01X13776Y1686D01*
G01X13751Y1627D01*
G01X13720Y1527D01*
G01X13699Y1425D01*
G01X13689Y1322D01*
G01X13689Y1217D01*
G01X13699Y1114D01*
G01X13720Y1012D01*
G01X13751Y912D01*
G01X13791Y817D01*
G01X13841Y725D01*
G01X13899Y639D01*
G01X13966Y559D01*
G01X14019Y508D01*
G01X12904Y508D01*
G01X12920Y522D01*
G01X12991Y598D01*
G01X13054Y681D01*
G01X13108Y770D01*
G01X13153Y864D01*
G01X13189Y962D01*
G01X13215Y1063D01*
G01X13230Y1166D01*
G01X13235Y1270D01*
G01X13230Y1373D01*
G01X13215Y1476D01*
G01X13189Y1577D01*
G01X13153Y1675D01*
G01X13108Y1769D01*
G01X13054Y1858D01*
G01X12991Y1941D01*
G01X12920Y2017D01*
G01X12842Y2086D01*
G01X12758Y2146D01*
G01X12668Y2198D01*
G01X12573Y2241D01*
G01X12474Y2274D01*
G01X12373Y2298D01*
G01X12270Y2311D01*
G01X12165Y2313D01*
G01X12062Y2305D01*
G01X11959Y2287D01*
G01X11859Y2259D01*
G01X11774Y2226D01*
G01X11303Y2697D01*
G01X11303Y9906D01*
G01X11302Y9919D01*
G01X11302Y9932D01*
G01X11300Y9944D01*
G01X11299Y9957D01*
G01X11297Y9970D01*
G01X11295Y9983D01*
G01X11292Y9996D01*
G01X11288Y10008D01*
G01X11285Y10021D01*
G01X11281Y10033D01*
G01X11276Y10045D01*
G01X11271Y10057D01*
G01X11266Y10069D01*
G01X11260Y10081D01*
G01X11254Y10092D01*
G01X11247Y10103D01*
G01X11240Y10114D01*
G01X11233Y10125D01*
G01X11225Y10136D01*
G01X11217Y10146D01*
G01X11209Y10156D01*
G01X11200Y10166D01*
G01X11191Y10175D01*
G01X10608Y10758D01*
G01X10614Y10770D01*
G01X10649Y10868D01*
G01X10675Y10969D01*
G01X10690Y11072D01*
G01X10696Y11176D01*
G01X10690Y11279D01*
G01X10675Y11382D01*
G01X10649Y11483D01*
G01X10614Y11581D01*
G01X10568Y11675D01*
G01X10514Y11764D01*
G01X10451Y11847D01*
G01X10380Y11923D01*
G01X10302Y11992D01*
G01X10218Y12053D01*
G01X10128Y12105D01*
G01X10033Y12147D01*
G01X10033Y12148D01*
G01X10033Y12730D01*
G01X10038Y12732D01*
G01X10134Y12775D01*
G01X10225Y12828D01*
G01X10310Y12889D01*
G01X10389Y12959D01*
G01X10461Y13036D01*
G01X10525Y13120D01*
G01X10579Y13210D01*
G01X10625Y13305D01*
G01X10661Y13404D01*
G01X10687Y13506D01*
G01X10703Y13610D01*
G01X10708Y13716D01*
G01X10703Y13821D01*
G01X10687Y13925D01*
G01X10661Y14027D01*
G01X10625Y14126D01*
G01X10579Y14221D01*
G01X10525Y14311D01*
G01X10461Y14395D01*
G01X10389Y14472D01*
G01X10310Y14542D01*
G01X10225Y14603D01*
G01X10134Y14656D01*
G01X10038Y14699D01*
G01X9938Y14733D01*
G01X9835Y14756D01*
G01X9730Y14769D01*
G01X9625Y14772D01*
G01X9520Y14764D01*
G01X9416Y14746D01*
G01X9315Y14717D01*
G01X9217Y14679D01*
G01X9123Y14631D01*
G01X9035Y14573D01*
G01X8952Y14508D01*
G01X8877Y14434D01*
G01X8809Y14353D01*
G01X8750Y14266D01*
G01X8700Y14174D01*
G01X8659Y14077D01*
G01X8628Y13976D01*
G01X8607Y13873D01*
G01X8596Y13768D01*
G01X8596Y13663D01*
G01X8607Y13558D01*
G01X8628Y13455D01*
G01X8659Y13354D01*
G01X8700Y13257D01*
G01X8750Y13165D01*
G01X8809Y13078D01*
G01X8877Y12997D01*
G01X8952Y12923D01*
G01X9035Y12858D01*
G01X9123Y12800D01*
G01X9217Y12752D01*
G01X9271Y12731D01*
G01X9271Y12146D01*
G01X9222Y12127D01*
G01X9129Y12080D01*
G01X9042Y12023D01*
G01X8961Y11958D01*
G01X8886Y11886D01*
G01X8819Y11806D01*
G01X8761Y11720D01*
G01X8711Y11628D01*
G01X8670Y11533D01*
G01X8640Y11433D01*
G01X8619Y11331D01*
G01X8609Y11228D01*
G01X8609Y11123D01*
G01X8619Y11020D01*
G01X8640Y10918D01*
G01X8670Y10818D01*
G01X8711Y10723D01*
G01X8761Y10631D01*
G01X8819Y10545D01*
G01X8886Y10465D01*
G01X8961Y10393D01*
G01X9042Y10328D01*
G01X9129Y10271D01*
G01X9222Y10224D01*
G01X9319Y10186D01*
G01X9419Y10158D01*
G01X9522Y10140D01*
G01X9625Y10132D01*
G01X9730Y10134D01*
G01X9833Y10147D01*
G01X9934Y10170D01*
G01X10033Y10204D01*
G01X10068Y10220D01*
G01X10541Y9748D01*
G01X10541Y2540D01*
G01X10541Y2526D01*
G01X10541Y2513D01*
G01X10543Y2501D01*
G01X10544Y2488D01*
G01X10546Y2475D01*
G01X10548Y2462D01*
G01X10551Y2449D01*
G01X10555Y2437D01*
G01X10558Y2424D01*
G01X10562Y2412D01*
G01X10567Y2400D01*
G01X10572Y2388D01*
G01X10577Y2376D01*
G01X10583Y2364D01*
G01X10589Y2353D01*
G01X10596Y2342D01*
G01X10603Y2331D01*
G01X10610Y2320D01*
G01X10618Y2309D01*
G01X10626Y2299D01*
G01X10634Y2289D01*
G01X10643Y2279D01*
G01X10652Y2270D01*
G01X11236Y1686D01*
G01X11211Y1627D01*
G01X11180Y1527D01*
G01X11159Y1425D01*
G01X11149Y1322D01*
G01X11149Y1217D01*
G01X11159Y1114D01*
G01X11180Y1012D01*
G01X11211Y912D01*
G01X11251Y817D01*
G01X11301Y725D01*
G01X11359Y639D01*
G01X11426Y559D01*
G01X11479Y508D01*
G01X10364Y508D01*
G01X10380Y522D01*
G01X10451Y598D01*
G01X10514Y681D01*
G01X10568Y770D01*
G01X10613Y864D01*
G01X10649Y962D01*
G01X10675Y1063D01*
G01X10690Y1166D01*
G01X10695Y1270D01*
G01X10690Y1373D01*
G01X10675Y1476D01*
G01X10649Y1577D01*
G01X10613Y1675D01*
G01X10568Y1769D01*
G01X10514Y1858D01*
G01X10451Y1941D01*
G01X10380Y2017D01*
G01X10302Y2086D01*
G01X10218Y2146D01*
G01X10128Y2198D01*
G01X10033Y2241D01*
G01X9934Y2274D01*
G01X9833Y2298D01*
G01X9730Y2311D01*
G01X9625Y2313D01*
G01X9522Y2305D01*
G01X9419Y2287D01*
G01X9319Y2259D01*
G01X9234Y2226D01*
G01X8763Y2697D01*
G01X8763Y9906D01*
G01X8762Y9919D01*
G01X8762Y9932D01*
G01X8760Y9944D01*
G01X8759Y9957D01*
G01X8757Y9970D01*
G01X8755Y9983D01*
G01X8752Y9996D01*
G01X8748Y10008D01*
G01X8745Y10021D01*
G01X8741Y10033D01*
G01X8736Y10045D01*
G01X8731Y10057D01*
G01X8726Y10069D01*
G01X8720Y10081D01*
G01X8714Y10092D01*
G01X8707Y10103D01*
G01X8700Y10114D01*
G01X8693Y10125D01*
G01X8685Y10136D01*
G01X8677Y10146D01*
G01X8669Y10156D01*
G01X8660Y10166D01*
G01X8651Y10175D01*
G01X8068Y10758D01*
G01X8074Y10770D01*
G01X8109Y10868D01*
G01X8135Y10969D01*
G01X8150Y11072D01*
G01X8156Y11176D01*
G01X8150Y11279D01*
G01X8135Y11382D01*
G01X8109Y11483D01*
G01X8074Y11581D01*
G01X8028Y11675D01*
G01X7974Y11764D01*
G01X7911Y11847D01*
G01X7840Y11923D01*
G01X7762Y11992D01*
G01X7678Y12053D01*
G01X7588Y12105D01*
G01X7493Y12147D01*
G01X7493Y12148D01*
G01X7493Y12730D01*
G01X7498Y12732D01*
G01X7594Y12775D01*
G01X7685Y12828D01*
G01X7770Y12889D01*
G01X7849Y12959D01*
G01X7921Y13036D01*
G01X7985Y13120D01*
G01X8039Y13210D01*
G01X8085Y13305D01*
G01X8121Y13404D01*
G01X8147Y13506D01*
G01X8163Y13610D01*
G01X8168Y13716D01*
G01X8163Y13821D01*
G01X8147Y13925D01*
G01X8121Y14027D01*
G01X8085Y14126D01*
G01X8039Y14221D01*
G01X7985Y14311D01*
G01X7921Y14395D01*
G01X7849Y14472D01*
G01X7770Y14542D01*
G01X7685Y14603D01*
G01X7594Y14656D01*
G01X7498Y14699D01*
G01X7398Y14733D01*
G01X7295Y14756D01*
G01X7190Y14769D01*
G01X7085Y14772D01*
G01X6980Y14764D01*
G01X6876Y14746D01*
G01X6775Y14717D01*
G01X6677Y14679D01*
G01X6583Y14631D01*
G01X6495Y14573D01*
G01X6412Y14508D01*
G01X6337Y14434D01*
G01X6269Y14353D01*
G01X6210Y14266D01*
G01X6160Y14174D01*
G01X6119Y14077D01*
G01X6088Y13976D01*
G01X6067Y13873D01*
G01X6056Y13768D01*
G01X6056Y13663D01*
G01X6067Y13558D01*
G01X6088Y13455D01*
G01X6119Y13354D01*
G01X6160Y13257D01*
G01X6210Y13165D01*
G01X6269Y13078D01*
G01X6337Y12997D01*
G01X6412Y12923D01*
G01X6495Y12858D01*
G01X6583Y12800D01*
G01X6677Y12752D01*
G01X6731Y12731D01*
G01X6731Y12146D01*
G01X6682Y12127D01*
G01X6589Y12080D01*
G01X6502Y12023D01*
G01X6421Y11958D01*
G01X6346Y11886D01*
G01X6279Y11806D01*
G01X6221Y11720D01*
G01X6171Y11628D01*
G01X6130Y11533D01*
G01X6100Y11433D01*
G01X6079Y11331D01*
G01X6069Y11228D01*
G01X6069Y11123D01*
G01X6079Y11020D01*
G01X6100Y10918D01*
G01X6130Y10818D01*
G01X6171Y10723D01*
G01X6221Y10631D01*
G01X6279Y10545D01*
G01X6346Y10465D01*
G01X6421Y10393D01*
G01X6502Y10328D01*
G01X6589Y10271D01*
G01X6682Y10224D01*
G01X6779Y10186D01*
G01X6879Y10158D01*
G01X6982Y10140D01*
G01X7085Y10132D01*
G01X7190Y10134D01*
G01X7293Y10147D01*
G01X7394Y10170D01*
G01X7493Y10204D01*
G01X7528Y10220D01*
G01X8001Y9748D01*
G01X8001Y2540D01*
G01X8001Y2526D01*
G01X8001Y2513D01*
G01X8003Y2501D01*
G01X8004Y2488D01*
G01X8006Y2475D01*
G01X8008Y2462D01*
G01X8011Y2449D01*
G01X8015Y2437D01*
G01X8018Y2424D01*
G01X8022Y2412D01*
G01X8027Y2400D01*
G01X8032Y2388D01*
G01X8037Y2376D01*
G01X8043Y2364D01*
G01X8049Y2353D01*
G01X8056Y2342D01*
G01X8063Y2331D01*
G01X8070Y2320D01*
G01X8078Y2309D01*
G01X8086Y2299D01*
G01X8094Y2289D01*
G01X8103Y2279D01*
G01X8112Y2270D01*
G01X8696Y1686D01*
G01X8671Y1627D01*
G01X8640Y1527D01*
G01X8619Y1425D01*
G01X8609Y1322D01*
G01X8609Y1217D01*
G01X8619Y1114D01*
G01X8640Y1012D01*
G01X8671Y912D01*
G01X8711Y817D01*
G01X8761Y725D01*
G01X8819Y639D01*
G01X8886Y559D01*
G01X8939Y508D01*
G01X7824Y508D01*
G01X7840Y522D01*
G01X7911Y598D01*
G01X7974Y681D01*
G01X8028Y770D01*
G01X8073Y864D01*
G01X8109Y962D01*
G01X8135Y1063D01*
G01X8150Y1166D01*
G01X8155Y1270D01*
G01X8150Y1373D01*
G01X8135Y1476D01*
G01X8109Y1577D01*
G01X8073Y1675D01*
G01X8028Y1769D01*
G01X7974Y1858D01*
G01X7911Y1941D01*
G01X7840Y2017D01*
G01X7762Y2086D01*
G01X7678Y2146D01*
G01X7588Y2198D01*
G01X7493Y2241D01*
G01X7394Y2274D01*
G01X7293Y2298D01*
G01X7190Y2311D01*
G01X7085Y2313D01*
G01X6982Y2305D01*
G01X6879Y2287D01*
G01X6779Y2259D01*
G01X6694Y2226D01*
G01X6223Y2697D01*
G01X6223Y9906D01*
G01X6222Y9919D01*
G01X6222Y9932D01*
G01X6220Y9944D01*
G01X6219Y9957D01*
G01X6217Y9970D01*
G01X6215Y9983D01*
G01X6212Y9996D01*
G01X6208Y10008D01*
G01X6205Y10021D01*
G01X6201Y10033D01*
G01X6196Y10045D01*
G01X6191Y10057D01*
G01X6186Y10069D01*
G01X6180Y10081D01*
G01X6174Y10092D01*
G01X6167Y10103D01*
G01X6160Y10114D01*
G01X6153Y10125D01*
G01X6145Y10136D01*
G01X6137Y10146D01*
G01X6129Y10156D01*
G01X6120Y10166D01*
G01X6111Y10175D01*
G01X5528Y10758D01*
G01X5534Y10770D01*
G01X5569Y10868D01*
G01X5595Y10969D01*
G01X5610Y11072D01*
G01X5616Y11176D01*
G01X5610Y11279D01*
G01X5595Y11382D01*
G01X5569Y11483D01*
G01X5534Y11581D01*
G01X5488Y11675D01*
G01X5434Y11764D01*
G01X5371Y11847D01*
G01X5300Y11923D01*
G01X5222Y11992D01*
G01X5138Y12053D01*
G01X5048Y12105D01*
G01X4953Y12147D01*
G01X4953Y12148D01*
G01X4953Y12730D01*
G01X4958Y12732D01*
G01X5054Y12775D01*
G01X5145Y12828D01*
G01X5230Y12889D01*
G01X5309Y12959D01*
G01X5381Y13036D01*
G01X5445Y13120D01*
G01X5499Y13210D01*
G01X5545Y13305D01*
G01X5581Y13404D01*
G01X5607Y13506D01*
G01X5623Y13610D01*
G01X5628Y13716D01*
G01X5623Y13821D01*
G01X5607Y13925D01*
G01X5581Y14027D01*
G01X5545Y14126D01*
G01X5499Y14221D01*
G01X5445Y14311D01*
G01X5381Y14395D01*
G01X5309Y14472D01*
G01X5230Y14542D01*
G01X5145Y14603D01*
G01X5054Y14656D01*
G01X4958Y14699D01*
G01X4858Y14733D01*
G01X4755Y14756D01*
G01X4650Y14769D01*
G01X4545Y14772D01*
G01X4440Y14764D01*
G01X4336Y14746D01*
G01X4235Y14717D01*
G01X4137Y14679D01*
G01X4043Y14631D01*
G01X3955Y14573D01*
G01X3872Y14508D01*
G01X3797Y14434D01*
G01X3729Y14353D01*
G01X3683Y14285D01*
G01X3683Y15336D01*
G01X6761Y18415D01*
G01X26955Y18415D01*
G01X26988Y18337D01*
G01X27038Y18245D01*
G01X27097Y18158D01*
G01X27165Y18077D01*
G01X27240Y18003D01*
G01X27323Y17938D01*
G01X27411Y17880D01*
G01X27505Y17832D01*
G01X27603Y17794D01*
G01X27704Y17765D01*
G01X27808Y17747D01*
G01X27913Y17739D01*
G01X28018Y17742D01*
G01X28123Y17755D01*
G01X28226Y17778D01*
G01X28326Y17812D01*
G01X28422Y17855D01*
G01X28513Y17908D01*
G01X28598Y17969D01*
G01X28677Y18039D01*
G01X28749Y18116D01*
G01X28813Y18200D01*
G01X28867Y18290D01*
G01X28913Y18385D01*
G01X28949Y18484D01*
G01X28975Y18586D01*
G01X28991Y18690D01*
G01X28996Y18796D01*
G01X28991Y18901D01*
G01X28975Y19005D01*
G01X28949Y19107D01*
G01X28913Y19206D01*
G01X28867Y19301D01*
G01X28813Y19391D01*
G01X28749Y19475D01*
G01X28677Y19552D01*
G01X28598Y19622D01*
G01X28513Y19683D01*
G01X28422Y19736D01*
G01X28326Y19779D01*
G01X28226Y19813D01*
G01X28123Y19836D01*
G01X28018Y19849D01*
G01X27913Y19852D01*
G01X27808Y19844D01*
G01X27704Y19826D01*
G01X27603Y19797D01*
G01X27505Y19759D01*
G01X27411Y19711D01*
G01X27323Y19653D01*
G01X27240Y19588D01*
G01X27165Y19514D01*
G01X27097Y19433D01*
G01X27038Y19346D01*
G01X26988Y19254D01*
G01X26955Y19177D01*
G01X6604Y19177D01*
G01X6590Y19176D01*
G01X6577Y19176D01*
G01X6565Y19174D01*
G01X6552Y19173D01*
G01X6539Y19171D01*
G01X6526Y19169D01*
G01X6513Y19166D01*
G01X6501Y19162D01*
G01X6488Y19159D01*
G01X6476Y19155D01*
G01X6464Y19150D01*
G01X6452Y19145D01*
G01X6440Y19140D01*
G01X6428Y19134D01*
G01X6417Y19128D01*
G01X6406Y19121D01*
G01X6395Y19114D01*
G01X6384Y19107D01*
G01X6373Y19099D01*
G01X6363Y19091D01*
G01X6353Y19083D01*
G01X6343Y19074D01*
G01X6334Y19065D01*
G01X3032Y15763D01*
G01X3023Y15754D01*
G01X3014Y15744D01*
G01X3006Y15734D01*
G01X2998Y15724D01*
G01X2990Y15713D01*
G01X2983Y15702D01*
G01X2976Y15691D01*
G01X2969Y15680D01*
G01X2963Y15669D01*
G01X2957Y15657D01*
G01X2952Y15645D01*
G01X2947Y15633D01*
G01X2942Y15621D01*
G01X2938Y15609D01*
G01X2935Y15596D01*
G01X2931Y15584D01*
G01X2928Y15571D01*
G01X2926Y15558D01*
G01X2924Y15545D01*
G01X2923Y15532D01*
G01X2921Y15520D01*
G01X2921Y15507D01*
G01X2921Y15494D01*
G01X2921Y14285D01*
G01X2905Y14311D01*
G01X2841Y14395D01*
G01X2769Y14472D01*
G01X2690Y14542D01*
G01X2605Y14603D01*
G01X2514Y14656D01*
G01X2418Y14699D01*
G01X2318Y14733D01*
G01X2215Y14756D01*
G01X2110Y14769D01*
G01X2005Y14772D01*
G01X1900Y14764D01*
G01X1796Y14746D01*
G01X1695Y14717D01*
G01X1597Y14679D01*
G01X1503Y14631D01*
G01X1415Y14573D01*
G01X1332Y14508D01*
G01X1257Y14434D01*
G01X1189Y14353D01*
G01X1130Y14266D01*
G01X1080Y14174D01*
G01X1039Y14077D01*
G01X1008Y13976D01*
G01X987Y13873D01*
G01X976Y13768D01*
G01X976Y13663D01*
G01X987Y13558D01*
G01X1008Y13455D01*
G01X1039Y13354D01*
G01X1080Y13257D01*
G01X1130Y13165D01*
G01X1189Y13078D01*
G01X1257Y12997D01*
G01X1332Y12923D01*
G01X1415Y12858D01*
G01X1503Y12800D01*
G01X1597Y12752D01*
G01X1695Y12714D01*
G01X1796Y12685D01*
G01X1900Y12667D01*
G01X2005Y12659D01*
G01X2110Y12662D01*
G01X2215Y12675D01*
G01X2318Y12698D01*
G01X2418Y12732D01*
G01X2514Y12775D01*
G01X2605Y12828D01*
G01X2690Y12889D01*
G01X2769Y12959D01*
G01X2841Y13036D01*
G01X2905Y13120D01*
G01X2921Y13146D01*
G01X2921Y12603D01*
G01X2448Y12131D01*
G01X2413Y12147D01*
G01X2314Y12181D01*
G01X2213Y12204D01*
G01X2110Y12217D01*
G01X2005Y12219D01*
G01X1902Y12211D01*
G01X1799Y12193D01*
G01X1699Y12165D01*
G01X1602Y12127D01*
G01X1509Y12080D01*
G01X1422Y12023D01*
G01X1341Y11958D01*
G01X1266Y11886D01*
G01X1199Y11806D01*
G01X1141Y11720D01*
G01X1091Y11628D01*
G01X1050Y11533D01*
G01X1020Y11433D01*
G01X999Y11331D01*
G01X989Y11228D01*
G01X989Y11123D01*
G01X999Y11020D01*
G01X1020Y10918D01*
G01X1050Y10818D01*
G01X1091Y10723D01*
G01X1141Y10631D01*
G01X1199Y10545D01*
G01X1266Y10465D01*
G01X1341Y10393D01*
G01X1422Y10328D01*
G01X1509Y10271D01*
G01X1602Y10224D01*
G01X1699Y10186D01*
G01X1799Y10158D01*
G01X1902Y10140D01*
G01X2005Y10132D01*
G01X2110Y10134D01*
G01X2213Y10147D01*
G01X2314Y10170D01*
G01X2413Y10204D01*
G01X2448Y10220D01*
G01X2921Y9748D01*
G01X2921Y2540D01*
G01X2921Y2526D01*
G01X2921Y2513D01*
G01X2923Y2501D01*
G01X2924Y2488D01*
G01X2926Y2475D01*
G01X2928Y2462D01*
G01X2931Y2449D01*
G01X2935Y2437D01*
G01X2938Y2424D01*
G01X2942Y2412D01*
G01X2947Y2400D01*
G01X2952Y2388D01*
G01X2957Y2376D01*
G01X2963Y2364D01*
G01X2969Y2353D01*
G01X2976Y2342D01*
G01X2983Y2331D01*
G01X2990Y2320D01*
G01X2998Y2309D01*
G01X3006Y2299D01*
G01X3014Y2289D01*
G01X3023Y2279D01*
G01X3032Y2270D01*
G01X3616Y1686D01*
G01X3591Y1627D01*
G01X3560Y1527D01*
G01X3539Y1425D01*
G01X3529Y1322D01*
G01X3529Y1217D01*
G01X3539Y1114D01*
G01X3560Y1012D01*
G01X3591Y912D01*
G01X3631Y817D01*
G01X3681Y725D01*
G01X3739Y639D01*
G01X3806Y559D01*
G01X3859Y508D01*
G01X2288Y508D01*
G37*

%LPC*%
G36*
G01X27913Y7579D02*
G01X28018Y7582D01*
G01X28123Y7595D01*
G01X28226Y7618D01*
G01X28326Y7652D01*
G01X28422Y7695D01*
G01X28513Y7748D01*
G01X28598Y7809D01*
G01X28677Y7879D01*
G01X28749Y7956D01*
G01X28813Y8040D01*
G01X28867Y8130D01*
G01X28913Y8225D01*
G01X28949Y8324D01*
G01X28975Y8426D01*
G01X28991Y8530D01*
G01X28996Y8636D01*
G01X28991Y8741D01*
G01X28975Y8845D01*
G01X28949Y8947D01*
G01X28913Y9046D01*
G01X28867Y9141D01*
G01X28813Y9231D01*
G01X28749Y9315D01*
G01X28677Y9392D01*
G01X28598Y9462D01*
G01X28513Y9523D01*
G01X28422Y9576D01*
G01X28326Y9619D01*
G01X28226Y9653D01*
G01X28123Y9676D01*
G01X28018Y9689D01*
G01X27913Y9692D01*
G01X27808Y9684D01*
G01X27704Y9666D01*
G01X27603Y9637D01*
G01X27512Y9602D01*
G01X24399Y12715D01*
G01X24390Y12724D01*
G01X24380Y12733D01*
G01X24370Y12741D01*
G01X24360Y12749D01*
G01X24349Y12757D01*
G01X24338Y12764D01*
G01X24327Y12771D01*
G01X24316Y12778D01*
G01X24305Y12784D01*
G01X24293Y12790D01*
G01X24281Y12795D01*
G01X24269Y12800D01*
G01X24257Y12805D01*
G01X24245Y12809D01*
G01X24232Y12812D01*
G01X24220Y12816D01*
G01X24207Y12819D01*
G01X24194Y12821D01*
G01X24181Y12823D01*
G01X24168Y12824D01*
G01X24156Y12826D01*
G01X24143Y12826D01*
G01X24130Y12827D01*
G01X22922Y12827D01*
G01X22925Y12828D01*
G01X23010Y12889D01*
G01X23089Y12959D01*
G01X23161Y13036D01*
G01X23225Y13120D01*
G01X23279Y13210D01*
G01X23325Y13305D01*
G01X23361Y13404D01*
G01X23387Y13506D01*
G01X23403Y13610D01*
G01X23408Y13716D01*
G01X23403Y13821D01*
G01X23387Y13925D01*
G01X23361Y14027D01*
G01X23325Y14126D01*
G01X23279Y14221D01*
G01X23225Y14311D01*
G01X23161Y14395D01*
G01X23089Y14472D01*
G01X23010Y14542D01*
G01X22925Y14603D01*
G01X22834Y14656D01*
G01X22738Y14699D01*
G01X22638Y14733D01*
G01X22535Y14756D01*
G01X22430Y14769D01*
G01X22325Y14772D01*
G01X22220Y14764D01*
G01X22116Y14746D01*
G01X22015Y14717D01*
G01X21917Y14679D01*
G01X21823Y14631D01*
G01X21735Y14573D01*
G01X21652Y14508D01*
G01X21577Y14434D01*
G01X21509Y14353D01*
G01X21450Y14266D01*
G01X21400Y14174D01*
G01X21359Y14077D01*
G01X21328Y13976D01*
G01X21307Y13873D01*
G01X21296Y13768D01*
G01X21296Y13663D01*
G01X21307Y13558D01*
G01X21328Y13455D01*
G01X21359Y13354D01*
G01X21400Y13257D01*
G01X21450Y13165D01*
G01X21509Y13078D01*
G01X21577Y12997D01*
G01X21652Y12923D01*
G01X21735Y12858D01*
G01X21783Y12827D01*
G01X20382Y12827D01*
G01X20385Y12828D01*
G01X20470Y12889D01*
G01X20549Y12959D01*
G01X20621Y13036D01*
G01X20685Y13120D01*
G01X20739Y13210D01*
G01X20785Y13305D01*
G01X20821Y13404D01*
G01X20847Y13506D01*
G01X20863Y13610D01*
G01X20868Y13716D01*
G01X20863Y13821D01*
G01X20847Y13925D01*
G01X20821Y14027D01*
G01X20785Y14126D01*
G01X20739Y14221D01*
G01X20685Y14311D01*
G01X20621Y14395D01*
G01X20549Y14472D01*
G01X20470Y14542D01*
G01X20385Y14603D01*
G01X20294Y14656D01*
G01X20198Y14699D01*
G01X20098Y14733D01*
G01X19995Y14756D01*
G01X19890Y14769D01*
G01X19785Y14772D01*
G01X19680Y14764D01*
G01X19576Y14746D01*
G01X19475Y14717D01*
G01X19377Y14679D01*
G01X19283Y14631D01*
G01X19195Y14573D01*
G01X19112Y14508D01*
G01X19037Y14434D01*
G01X18969Y14353D01*
G01X18910Y14266D01*
G01X18860Y14174D01*
G01X18819Y14077D01*
G01X18788Y13976D01*
G01X18767Y13873D01*
G01X18756Y13768D01*
G01X18756Y13663D01*
G01X18767Y13558D01*
G01X18788Y13455D01*
G01X18819Y13354D01*
G01X18860Y13257D01*
G01X18910Y13165D01*
G01X18969Y13078D01*
G01X19037Y12997D01*
G01X19112Y12923D01*
G01X19195Y12858D01*
G01X19243Y12827D01*
G01X17842Y12827D01*
G01X17845Y12828D01*
G01X17930Y12889D01*
G01X18009Y12959D01*
G01X18081Y13036D01*
G01X18145Y13120D01*
G01X18199Y13210D01*
G01X18245Y13305D01*
G01X18281Y13404D01*
G01X18307Y13506D01*
G01X18323Y13610D01*
G01X18328Y13716D01*
G01X18323Y13821D01*
G01X18307Y13925D01*
G01X18281Y14027D01*
G01X18245Y14126D01*
G01X18199Y14221D01*
G01X18145Y14311D01*
G01X18081Y14395D01*
G01X18009Y14472D01*
G01X17930Y14542D01*
G01X17845Y14603D01*
G01X17754Y14656D01*
G01X17658Y14699D01*
G01X17558Y14733D01*
G01X17455Y14756D01*
G01X17350Y14769D01*
G01X17245Y14772D01*
G01X17140Y14764D01*
G01X17036Y14746D01*
G01X16935Y14717D01*
G01X16837Y14679D01*
G01X16743Y14631D01*
G01X16655Y14573D01*
G01X16572Y14508D01*
G01X16497Y14434D01*
G01X16429Y14353D01*
G01X16370Y14266D01*
G01X16320Y14174D01*
G01X16279Y14077D01*
G01X16248Y13976D01*
G01X16227Y13873D01*
G01X16216Y13768D01*
G01X16216Y13663D01*
G01X16227Y13558D01*
G01X16248Y13455D01*
G01X16279Y13354D01*
G01X16320Y13257D01*
G01X16370Y13165D01*
G01X16429Y13078D01*
G01X16497Y12997D01*
G01X16572Y12923D01*
G01X16655Y12858D01*
G01X16703Y12827D01*
G01X16159Y12827D01*
G01X15697Y13289D01*
G01X15705Y13305D01*
G01X15741Y13404D01*
G01X15767Y13506D01*
G01X15783Y13610D01*
G01X15788Y13716D01*
G01X15783Y13821D01*
G01X15767Y13925D01*
G01X15741Y14027D01*
G01X15705Y14126D01*
G01X15659Y14221D01*
G01X15605Y14311D01*
G01X15541Y14395D01*
G01X15469Y14472D01*
G01X15390Y14542D01*
G01X15305Y14603D01*
G01X15214Y14656D01*
G01X15118Y14699D01*
G01X15018Y14733D01*
G01X14915Y14756D01*
G01X14810Y14769D01*
G01X14705Y14772D01*
G01X14600Y14764D01*
G01X14496Y14746D01*
G01X14395Y14717D01*
G01X14297Y14679D01*
G01X14203Y14631D01*
G01X14115Y14573D01*
G01X14032Y14508D01*
G01X13957Y14434D01*
G01X13889Y14353D01*
G01X13830Y14266D01*
G01X13780Y14174D01*
G01X13739Y14077D01*
G01X13708Y13976D01*
G01X13687Y13873D01*
G01X13676Y13768D01*
G01X13676Y13663D01*
G01X13687Y13558D01*
G01X13708Y13455D01*
G01X13739Y13354D01*
G01X13780Y13257D01*
G01X13830Y13165D01*
G01X13889Y13078D01*
G01X13957Y12997D01*
G01X14032Y12923D01*
G01X14115Y12858D01*
G01X14203Y12800D01*
G01X14297Y12752D01*
G01X14395Y12714D01*
G01X14496Y12685D01*
G01X14600Y12667D01*
G01X14705Y12659D01*
G01X14810Y12662D01*
G01X14915Y12675D01*
G01X15018Y12698D01*
G01X15118Y12732D01*
G01X15158Y12750D01*
G01X15732Y12176D01*
G01X15741Y12167D01*
G01X15751Y12158D01*
G01X15761Y12150D01*
G01X15771Y12142D01*
G01X15782Y12134D01*
G01X15793Y12127D01*
G01X15804Y12120D01*
G01X15815Y12113D01*
G01X15826Y12107D01*
G01X15838Y12101D01*
G01X15850Y12096D01*
G01X15862Y12091D01*
G01X15874Y12086D01*
G01X15886Y12082D01*
G01X15899Y12079D01*
G01X15911Y12075D01*
G01X15924Y12072D01*
G01X15937Y12070D01*
G01X15950Y12068D01*
G01X15963Y12067D01*
G01X15975Y12065D01*
G01X15988Y12065D01*
G01X16002Y12065D01*
G01X23972Y12065D01*
G01X26974Y9062D01*
G01X26947Y8997D01*
G01X26916Y8896D01*
G01X26895Y8793D01*
G01X26884Y8688D01*
G01X26884Y8583D01*
G01X26895Y8478D01*
G01X26916Y8375D01*
G01X26947Y8274D01*
G01X26988Y8177D01*
G01X27038Y8085D01*
G01X27097Y7998D01*
G01X27165Y7917D01*
G01X27240Y7843D01*
G01X27323Y7778D01*
G01X27411Y7720D01*
G01X27505Y7672D01*
G01X27603Y7634D01*
G01X27704Y7605D01*
G01X27808Y7587D01*
G01X27913Y7579D01*
G37*
G36*
G01X24865Y20279D02*
G01X24970Y20282D01*
G01X25075Y20295D01*
G01X25178Y20318D01*
G01X25278Y20352D01*
G01X25374Y20395D01*
G01X25465Y20448D01*
G01X25550Y20509D01*
G01X25629Y20579D01*
G01X25701Y20656D01*
G01X25765Y20740D01*
G01X25819Y20830D01*
G01X25865Y20925D01*
G01X25901Y21024D01*
G01X25927Y21126D01*
G01X25943Y21230D01*
G01X25948Y21336D01*
G01X25943Y21441D01*
G01X25927Y21545D01*
G01X25901Y21647D01*
G01X25865Y21746D01*
G01X25819Y21841D01*
G01X25765Y21931D01*
G01X25701Y22015D01*
G01X25629Y22092D01*
G01X25550Y22162D01*
G01X25465Y22223D01*
G01X25374Y22276D01*
G01X25278Y22319D01*
G01X25178Y22353D01*
G01X25075Y22376D01*
G01X24970Y22389D01*
G01X24865Y22392D01*
G01X24760Y22384D01*
G01X24656Y22366D01*
G01X24555Y22337D01*
G01X24457Y22299D01*
G01X24363Y22251D01*
G01X24275Y22193D01*
G01X24192Y22128D01*
G01X24117Y22054D01*
G01X24049Y21973D01*
G01X23990Y21886D01*
G01X23940Y21794D01*
G01X23899Y21697D01*
G01X23868Y21596D01*
G01X23847Y21493D01*
G01X23836Y21388D01*
G01X23836Y21283D01*
G01X23847Y21178D01*
G01X23868Y21075D01*
G01X23899Y20974D01*
G01X23940Y20877D01*
G01X23990Y20785D01*
G01X24049Y20698D01*
G01X24117Y20617D01*
G01X24192Y20543D01*
G01X24275Y20478D01*
G01X24363Y20420D01*
G01X24457Y20372D01*
G01X24555Y20334D01*
G01X24656Y20305D01*
G01X24760Y20287D01*
G01X24865Y20279D01*
G37*
G36*
G01X22325Y20279D02*
G01X22430Y20282D01*
G01X22535Y20295D01*
G01X22638Y20318D01*
G01X22738Y20352D01*
G01X22834Y20395D01*
G01X22925Y20448D01*
G01X23010Y20509D01*
G01X23089Y20579D01*
G01X23161Y20656D01*
G01X23225Y20740D01*
G01X23279Y20830D01*
G01X23325Y20925D01*
G01X23361Y21024D01*
G01X23387Y21126D01*
G01X23403Y21230D01*
G01X23408Y21336D01*
G01X23403Y21441D01*
G01X23387Y21545D01*
G01X23361Y21647D01*
G01X23325Y21746D01*
G01X23279Y21841D01*
G01X23225Y21931D01*
G01X23161Y22015D01*
G01X23089Y22092D01*
G01X23010Y22162D01*
G01X22925Y22223D01*
G01X22834Y22276D01*
G01X22738Y22319D01*
G01X22638Y22353D01*
G01X22535Y22376D01*
G01X22430Y22389D01*
G01X22325Y22392D01*
G01X22220Y22384D01*
G01X22116Y22366D01*
G01X22015Y22337D01*
G01X21917Y22299D01*
G01X21823Y22251D01*
G01X21735Y22193D01*
G01X21652Y22128D01*
G01X21577Y22054D01*
G01X21509Y21973D01*
G01X21450Y21886D01*
G01X21400Y21794D01*
G01X21359Y21697D01*
G01X21328Y21596D01*
G01X21307Y21493D01*
G01X21296Y21388D01*
G01X21296Y21283D01*
G01X21307Y21178D01*
G01X21328Y21075D01*
G01X21359Y20974D01*
G01X21400Y20877D01*
G01X21450Y20785D01*
G01X21509Y20698D01*
G01X21577Y20617D01*
G01X21652Y20543D01*
G01X21735Y20478D01*
G01X21823Y20420D01*
G01X21917Y20372D01*
G01X22015Y20334D01*
G01X22116Y20305D01*
G01X22220Y20287D01*
G01X22325Y20279D01*
G37*
G36*
G01X35533Y7579D02*
G01X35638Y7582D01*
G01X35743Y7595D01*
G01X35846Y7618D01*
G01X35946Y7652D01*
G01X36042Y7695D01*
G01X36133Y7748D01*
G01X36218Y7809D01*
G01X36297Y7879D01*
G01X36369Y7956D01*
G01X36433Y8040D01*
G01X36487Y8130D01*
G01X36533Y8225D01*
G01X36569Y8324D01*
G01X36595Y8426D01*
G01X36611Y8530D01*
G01X36616Y8636D01*
G01X36611Y8741D01*
G01X36595Y8845D01*
G01X36569Y8947D01*
G01X36533Y9046D01*
G01X36487Y9141D01*
G01X36433Y9231D01*
G01X36369Y9315D01*
G01X36297Y9392D01*
G01X36218Y9462D01*
G01X36133Y9523D01*
G01X36042Y9576D01*
G01X35946Y9619D01*
G01X35846Y9653D01*
G01X35743Y9676D01*
G01X35638Y9689D01*
G01X35533Y9692D01*
G01X35428Y9684D01*
G01X35324Y9666D01*
G01X35223Y9637D01*
G01X35125Y9599D01*
G01X35031Y9551D01*
G01X34943Y9493D01*
G01X34860Y9428D01*
G01X34785Y9354D01*
G01X34717Y9273D01*
G01X34658Y9186D01*
G01X34608Y9094D01*
G01X34567Y8997D01*
G01X34536Y8896D01*
G01X34515Y8793D01*
G01X34504Y8688D01*
G01X34504Y8583D01*
G01X34515Y8478D01*
G01X34536Y8375D01*
G01X34567Y8274D01*
G01X34608Y8177D01*
G01X34658Y8085D01*
G01X34717Y7998D01*
G01X34785Y7917D01*
G01X34860Y7843D01*
G01X34943Y7778D01*
G01X35031Y7720D01*
G01X35125Y7672D01*
G01X35223Y7634D01*
G01X35324Y7605D01*
G01X35428Y7587D01*
G01X35533Y7579D01*
G37*
G36*
G01X27913Y20279D02*
G01X28018Y20282D01*
G01X28123Y20295D01*
G01X28226Y20318D01*
G01X28326Y20352D01*
G01X28422Y20395D01*
G01X28513Y20448D01*
G01X28598Y20509D01*
G01X28677Y20579D01*
G01X28749Y20656D01*
G01X28813Y20740D01*
G01X28867Y20830D01*
G01X28913Y20925D01*
G01X28949Y21024D01*
G01X28975Y21126D01*
G01X28991Y21230D01*
G01X28996Y21336D01*
G01X28991Y21441D01*
G01X28975Y21545D01*
G01X28949Y21647D01*
G01X28913Y21746D01*
G01X28867Y21841D01*
G01X28813Y21931D01*
G01X28749Y22015D01*
G01X28677Y22092D01*
G01X28598Y22162D01*
G01X28513Y22223D01*
G01X28422Y22276D01*
G01X28326Y22319D01*
G01X28226Y22353D01*
G01X28123Y22376D01*
G01X28018Y22389D01*
G01X27913Y22392D01*
G01X27808Y22384D01*
G01X27704Y22366D01*
G01X27603Y22337D01*
G01X27505Y22299D01*
G01X27411Y22251D01*
G01X27323Y22193D01*
G01X27240Y22128D01*
G01X27165Y22054D01*
G01X27097Y21973D01*
G01X27038Y21886D01*
G01X26988Y21794D01*
G01X26947Y21697D01*
G01X26916Y21596D01*
G01X26895Y21493D01*
G01X26884Y21388D01*
G01X26884Y21283D01*
G01X26895Y21178D01*
G01X26916Y21075D01*
G01X26947Y20974D01*
G01X26988Y20877D01*
G01X27038Y20785D01*
G01X27097Y20698D01*
G01X27165Y20617D01*
G01X27240Y20543D01*
G01X27323Y20478D01*
G01X27411Y20420D01*
G01X27505Y20372D01*
G01X27603Y20334D01*
G01X27704Y20305D01*
G01X27808Y20287D01*
G01X27913Y20279D01*
G37*
G36*
G01X35533Y17739D02*
G01X35638Y17742D01*
G01X35743Y17755D01*
G01X35846Y17778D01*
G01X35946Y17812D01*
G01X36042Y17855D01*
G01X36133Y17908D01*
G01X36218Y17969D01*
G01X36297Y18039D01*
G01X36369Y18116D01*
G01X36433Y18200D01*
G01X36487Y18290D01*
G01X36533Y18385D01*
G01X36569Y18484D01*
G01X36595Y18586D01*
G01X36611Y18690D01*
G01X36616Y18796D01*
G01X36611Y18901D01*
G01X36595Y19005D01*
G01X36569Y19107D01*
G01X36533Y19206D01*
G01X36487Y19301D01*
G01X36433Y19391D01*
G01X36369Y19475D01*
G01X36297Y19552D01*
G01X36218Y19622D01*
G01X36133Y19683D01*
G01X36042Y19736D01*
G01X35946Y19779D01*
G01X35846Y19813D01*
G01X35743Y19836D01*
G01X35638Y19849D01*
G01X35533Y19852D01*
G01X35428Y19844D01*
G01X35324Y19826D01*
G01X35223Y19797D01*
G01X35125Y19759D01*
G01X35031Y19711D01*
G01X34943Y19653D01*
G01X34860Y19588D01*
G01X34785Y19514D01*
G01X34717Y19433D01*
G01X34658Y19346D01*
G01X34608Y19254D01*
G01X34567Y19157D01*
G01X34536Y19056D01*
G01X34515Y18953D01*
G01X34504Y18848D01*
G01X34504Y18743D01*
G01X34515Y18638D01*
G01X34536Y18535D01*
G01X34567Y18434D01*
G01X34608Y18337D01*
G01X34658Y18245D01*
G01X34717Y18158D01*
G01X34785Y18077D01*
G01X34860Y18003D01*
G01X34943Y17938D01*
G01X35031Y17880D01*
G01X35125Y17832D01*
G01X35223Y17794D01*
G01X35324Y17765D01*
G01X35428Y17747D01*
G01X35533Y17739D01*
G37*
G36*
G01X35533Y15199D02*
G01X35638Y15202D01*
G01X35743Y15215D01*
G01X35846Y15238D01*
G01X35946Y15272D01*
G01X36042Y15315D01*
G01X36133Y15368D01*
G01X36218Y15429D01*
G01X36297Y15499D01*
G01X36369Y15576D01*
G01X36433Y15660D01*
G01X36487Y15750D01*
G01X36533Y15845D01*
G01X36569Y15944D01*
G01X36595Y16046D01*
G01X36611Y16150D01*
G01X36616Y16256D01*
G01X36611Y16361D01*
G01X36595Y16465D01*
G01X36569Y16567D01*
G01X36533Y16666D01*
G01X36487Y16761D01*
G01X36433Y16851D01*
G01X36369Y16935D01*
G01X36297Y17012D01*
G01X36218Y17082D01*
G01X36133Y17143D01*
G01X36042Y17196D01*
G01X35946Y17239D01*
G01X35846Y17273D01*
G01X35743Y17296D01*
G01X35638Y17309D01*
G01X35533Y17312D01*
G01X35428Y17304D01*
G01X35324Y17286D01*
G01X35223Y17257D01*
G01X35125Y17219D01*
G01X35031Y17171D01*
G01X34943Y17113D01*
G01X34860Y17048D01*
G01X34785Y16974D01*
G01X34717Y16893D01*
G01X34658Y16806D01*
G01X34608Y16714D01*
G01X34567Y16617D01*
G01X34536Y16516D01*
G01X34515Y16413D01*
G01X34504Y16308D01*
G01X34504Y16203D01*
G01X34515Y16098D01*
G01X34536Y15995D01*
G01X34567Y15894D01*
G01X34608Y15797D01*
G01X34658Y15705D01*
G01X34717Y15618D01*
G01X34785Y15537D01*
G01X34860Y15463D01*
G01X34943Y15398D01*
G01X35031Y15340D01*
G01X35125Y15292D01*
G01X35223Y15254D01*
G01X35324Y15225D01*
G01X35428Y15207D01*
G01X35533Y15199D01*
G37*
G36*
G01X27913Y10119D02*
G01X28018Y10122D01*
G01X28123Y10135D01*
G01X28226Y10158D01*
G01X28326Y10192D01*
G01X28422Y10235D01*
G01X28513Y10288D01*
G01X28598Y10349D01*
G01X28677Y10419D01*
G01X28749Y10496D01*
G01X28813Y10580D01*
G01X28867Y10670D01*
G01X28913Y10765D01*
G01X28949Y10864D01*
G01X28975Y10966D01*
G01X28991Y11070D01*
G01X28996Y11176D01*
G01X28991Y11281D01*
G01X28975Y11385D01*
G01X28949Y11487D01*
G01X28913Y11586D01*
G01X28867Y11681D01*
G01X28813Y11771D01*
G01X28749Y11855D01*
G01X28677Y11932D01*
G01X28598Y12002D01*
G01X28513Y12063D01*
G01X28422Y12116D01*
G01X28326Y12159D01*
G01X28226Y12193D01*
G01X28123Y12216D01*
G01X28018Y12229D01*
G01X27913Y12232D01*
G01X27808Y12224D01*
G01X27704Y12206D01*
G01X27603Y12177D01*
G01X27505Y12139D01*
G01X27411Y12091D01*
G01X27323Y12033D01*
G01X27240Y11968D01*
G01X27165Y11894D01*
G01X27097Y11813D01*
G01X27038Y11726D01*
G01X26988Y11634D01*
G01X26947Y11537D01*
G01X26916Y11436D01*
G01X26895Y11333D01*
G01X26884Y11228D01*
G01X26884Y11123D01*
G01X26895Y11018D01*
G01X26916Y10915D01*
G01X26947Y10814D01*
G01X26988Y10717D01*
G01X27038Y10625D01*
G01X27097Y10538D01*
G01X27165Y10457D01*
G01X27240Y10383D01*
G01X27323Y10318D01*
G01X27411Y10260D01*
G01X27505Y10212D01*
G01X27603Y10174D01*
G01X27704Y10145D01*
G01X27808Y10127D01*
G01X27913Y10119D01*
G37*
G36*
G01X35533Y10119D02*
G01X35638Y10122D01*
G01X35743Y10135D01*
G01X35846Y10158D01*
G01X35946Y10192D01*
G01X36042Y10235D01*
G01X36133Y10288D01*
G01X36218Y10349D01*
G01X36297Y10419D01*
G01X36369Y10496D01*
G01X36433Y10580D01*
G01X36487Y10670D01*
G01X36533Y10765D01*
G01X36569Y10864D01*
G01X36595Y10966D01*
G01X36611Y11070D01*
G01X36616Y11176D01*
G01X36611Y11281D01*
G01X36595Y11385D01*
G01X36569Y11487D01*
G01X36533Y11586D01*
G01X36487Y11681D01*
G01X36433Y11771D01*
G01X36369Y11855D01*
G01X36297Y11932D01*
G01X36218Y12002D01*
G01X36133Y12063D01*
G01X36042Y12116D01*
G01X35946Y12159D01*
G01X35846Y12193D01*
G01X35743Y12216D01*
G01X35638Y12229D01*
G01X35533Y12232D01*
G01X35428Y12224D01*
G01X35324Y12206D01*
G01X35223Y12177D01*
G01X35125Y12139D01*
G01X35031Y12091D01*
G01X34943Y12033D01*
G01X34860Y11968D01*
G01X34785Y11894D01*
G01X34717Y11813D01*
G01X34658Y11726D01*
G01X34608Y11634D01*
G01X34567Y11537D01*
G01X34536Y11436D01*
G01X34515Y11333D01*
G01X34504Y11228D01*
G01X34504Y11123D01*
G01X34515Y11018D01*
G01X34536Y10915D01*
G01X34567Y10814D01*
G01X34608Y10717D01*
G01X34658Y10625D01*
G01X34717Y10538D01*
G01X34785Y10457D01*
G01X34860Y10383D01*
G01X34943Y10318D01*
G01X35031Y10260D01*
G01X35125Y10212D01*
G01X35223Y10174D01*
G01X35324Y10145D01*
G01X35428Y10127D01*
G01X35533Y10119D01*
G37*
G36*
G01X35533Y5039D02*
G01X35638Y5042D01*
G01X35743Y5055D01*
G01X35846Y5078D01*
G01X35946Y5112D01*
G01X36042Y5155D01*
G01X36133Y5208D01*
G01X36218Y5269D01*
G01X36297Y5339D01*
G01X36369Y5416D01*
G01X36433Y5500D01*
G01X36487Y5590D01*
G01X36533Y5685D01*
G01X36569Y5784D01*
G01X36595Y5886D01*
G01X36611Y5990D01*
G01X36616Y6096D01*
G01X36611Y6201D01*
G01X36595Y6305D01*
G01X36569Y6407D01*
G01X36533Y6506D01*
G01X36487Y6601D01*
G01X36433Y6691D01*
G01X36369Y6775D01*
G01X36297Y6852D01*
G01X36218Y6922D01*
G01X36133Y6983D01*
G01X36042Y7036D01*
G01X35946Y7079D01*
G01X35846Y7113D01*
G01X35743Y7136D01*
G01X35638Y7149D01*
G01X35533Y7152D01*
G01X35428Y7144D01*
G01X35324Y7126D01*
G01X35223Y7097D01*
G01X35125Y7059D01*
G01X35031Y7011D01*
G01X34943Y6953D01*
G01X34860Y6888D01*
G01X34785Y6814D01*
G01X34717Y6733D01*
G01X34658Y6646D01*
G01X34608Y6554D01*
G01X34567Y6457D01*
G01X34536Y6356D01*
G01X34515Y6253D01*
G01X34504Y6148D01*
G01X34504Y6043D01*
G01X34515Y5938D01*
G01X34536Y5835D01*
G01X34567Y5734D01*
G01X34608Y5637D01*
G01X34658Y5545D01*
G01X34717Y5458D01*
G01X34785Y5377D01*
G01X34860Y5303D01*
G01X34943Y5238D01*
G01X35031Y5180D01*
G01X35125Y5132D01*
G01X35223Y5094D01*
G01X35324Y5065D01*
G01X35428Y5047D01*
G01X35533Y5039D01*
G37*
G36*
G01X35533Y12659D02*
G01X35638Y12662D01*
G01X35743Y12675D01*
G01X35846Y12698D01*
G01X35946Y12732D01*
G01X36042Y12775D01*
G01X36133Y12828D01*
G01X36218Y12889D01*
G01X36297Y12959D01*
G01X36369Y13036D01*
G01X36433Y13120D01*
G01X36487Y13210D01*
G01X36533Y13305D01*
G01X36569Y13404D01*
G01X36595Y13506D01*
G01X36611Y13610D01*
G01X36616Y13716D01*
G01X36611Y13821D01*
G01X36595Y13925D01*
G01X36569Y14027D01*
G01X36533Y14126D01*
G01X36487Y14221D01*
G01X36433Y14311D01*
G01X36369Y14395D01*
G01X36297Y14472D01*
G01X36218Y14542D01*
G01X36133Y14603D01*
G01X36042Y14656D01*
G01X35946Y14699D01*
G01X35846Y14733D01*
G01X35743Y14756D01*
G01X35638Y14769D01*
G01X35533Y14772D01*
G01X35428Y14764D01*
G01X35324Y14746D01*
G01X35223Y14717D01*
G01X35125Y14679D01*
G01X35031Y14631D01*
G01X34943Y14573D01*
G01X34860Y14508D01*
G01X34785Y14434D01*
G01X34717Y14353D01*
G01X34658Y14266D01*
G01X34608Y14174D01*
G01X34567Y14077D01*
G01X34536Y13976D01*
G01X34515Y13873D01*
G01X34504Y13768D01*
G01X34504Y13663D01*
G01X34515Y13558D01*
G01X34536Y13455D01*
G01X34567Y13354D01*
G01X34608Y13257D01*
G01X34658Y13165D01*
G01X34717Y13078D01*
G01X34785Y12997D01*
G01X34860Y12923D01*
G01X34943Y12858D01*
G01X35031Y12800D01*
G01X35125Y12752D01*
G01X35223Y12714D01*
G01X35324Y12685D01*
G01X35428Y12667D01*
G01X35533Y12659D01*
G37*
G36*
G01X27913Y15199D02*
G01X28018Y15202D01*
G01X28123Y15215D01*
G01X28226Y15238D01*
G01X28326Y15272D01*
G01X28422Y15315D01*
G01X28513Y15368D01*
G01X28598Y15429D01*
G01X28677Y15499D01*
G01X28749Y15576D01*
G01X28813Y15660D01*
G01X28867Y15750D01*
G01X28913Y15845D01*
G01X28949Y15944D01*
G01X28975Y16046D01*
G01X28991Y16150D01*
G01X28996Y16256D01*
G01X28991Y16361D01*
G01X28975Y16465D01*
G01X28949Y16567D01*
G01X28913Y16666D01*
G01X28867Y16761D01*
G01X28813Y16851D01*
G01X28749Y16935D01*
G01X28677Y17012D01*
G01X28598Y17082D01*
G01X28513Y17143D01*
G01X28422Y17196D01*
G01X28326Y17239D01*
G01X28226Y17273D01*
G01X28123Y17296D01*
G01X28018Y17309D01*
G01X27913Y17312D01*
G01X27808Y17304D01*
G01X27704Y17286D01*
G01X27603Y17257D01*
G01X27505Y17219D01*
G01X27411Y17171D01*
G01X27323Y17113D01*
G01X27240Y17048D01*
G01X27165Y16974D01*
G01X27097Y16893D01*
G01X27038Y16806D01*
G01X26988Y16714D01*
G01X26947Y16617D01*
G01X26916Y16516D01*
G01X26895Y16413D01*
G01X26884Y16308D01*
G01X26884Y16203D01*
G01X26895Y16098D01*
G01X26916Y15995D01*
G01X26947Y15894D01*
G01X26988Y15797D01*
G01X27038Y15705D01*
G01X27097Y15618D01*
G01X27165Y15537D01*
G01X27240Y15463D01*
G01X27323Y15398D01*
G01X27411Y15340D01*
G01X27505Y15292D01*
G01X27603Y15254D01*
G01X27704Y15225D01*
G01X27808Y15207D01*
G01X27913Y15199D01*
G37*

%LPD*%
G36*
G01X5284Y508D02*
G01X5300Y522D01*
G01X5371Y598D01*
G01X5434Y681D01*
G01X5488Y770D01*
G01X5533Y864D01*
G01X5569Y962D01*
G01X5595Y1063D01*
G01X5610Y1166D01*
G01X5615Y1270D01*
G01X5610Y1373D01*
G01X5595Y1476D01*
G01X5569Y1577D01*
G01X5533Y1675D01*
G01X5488Y1769D01*
G01X5434Y1858D01*
G01X5371Y1941D01*
G01X5300Y2017D01*
G01X5222Y2086D01*
G01X5138Y2146D01*
G01X5048Y2198D01*
G01X4953Y2241D01*
G01X4854Y2274D01*
G01X4753Y2298D01*
G01X4650Y2311D01*
G01X4545Y2313D01*
G01X4442Y2305D01*
G01X4339Y2287D01*
G01X4239Y2259D01*
G01X4154Y2226D01*
G01X3683Y2697D01*
G01X3683Y9906D01*
G01X3682Y9919D01*
G01X3682Y9932D01*
G01X3680Y9944D01*
G01X3679Y9957D01*
G01X3677Y9970D01*
G01X3675Y9983D01*
G01X3672Y9996D01*
G01X3668Y10008D01*
G01X3665Y10021D01*
G01X3661Y10033D01*
G01X3656Y10045D01*
G01X3651Y10057D01*
G01X3646Y10069D01*
G01X3640Y10081D01*
G01X3634Y10092D01*
G01X3627Y10103D01*
G01X3620Y10114D01*
G01X3613Y10125D01*
G01X3605Y10136D01*
G01X3597Y10146D01*
G01X3589Y10156D01*
G01X3580Y10166D01*
G01X3571Y10175D01*
G01X2988Y10758D01*
G01X2994Y10770D01*
G01X3029Y10868D01*
G01X3055Y10969D01*
G01X3070Y11072D01*
G01X3076Y11176D01*
G01X3070Y11279D01*
G01X3055Y11382D01*
G01X3029Y11483D01*
G01X2994Y11581D01*
G01X2988Y11593D01*
G01X3571Y12176D01*
G01X3580Y12185D01*
G01X3589Y12195D01*
G01X3597Y12205D01*
G01X3605Y12215D01*
G01X3613Y12226D01*
G01X3620Y12237D01*
G01X3627Y12248D01*
G01X3634Y12259D01*
G01X3640Y12270D01*
G01X3646Y12282D01*
G01X3651Y12294D01*
G01X3656Y12306D01*
G01X3661Y12318D01*
G01X3665Y12330D01*
G01X3668Y12343D01*
G01X3672Y12355D01*
G01X3675Y12368D01*
G01X3677Y12381D01*
G01X3679Y12394D01*
G01X3680Y12407D01*
G01X3682Y12419D01*
G01X3682Y12432D01*
G01X3683Y12446D01*
G01X3683Y13146D01*
G01X3729Y13078D01*
G01X3797Y12997D01*
G01X3872Y12923D01*
G01X3955Y12858D01*
G01X4043Y12800D01*
G01X4137Y12752D01*
G01X4191Y12731D01*
G01X4191Y12146D01*
G01X4142Y12127D01*
G01X4049Y12080D01*
G01X3962Y12023D01*
G01X3881Y11958D01*
G01X3806Y11886D01*
G01X3739Y11806D01*
G01X3681Y11720D01*
G01X3631Y11628D01*
G01X3590Y11533D01*
G01X3560Y11433D01*
G01X3539Y11331D01*
G01X3529Y11228D01*
G01X3529Y11123D01*
G01X3539Y11020D01*
G01X3560Y10918D01*
G01X3590Y10818D01*
G01X3631Y10723D01*
G01X3681Y10631D01*
G01X3739Y10545D01*
G01X3806Y10465D01*
G01X3881Y10393D01*
G01X3962Y10328D01*
G01X4049Y10271D01*
G01X4142Y10224D01*
G01X4239Y10186D01*
G01X4339Y10158D01*
G01X4442Y10140D01*
G01X4545Y10132D01*
G01X4650Y10134D01*
G01X4753Y10147D01*
G01X4854Y10170D01*
G01X4953Y10204D01*
G01X4988Y10220D01*
G01X5461Y9748D01*
G01X5461Y2540D01*
G01X5461Y2526D01*
G01X5461Y2513D01*
G01X5463Y2501D01*
G01X5464Y2488D01*
G01X5466Y2475D01*
G01X5468Y2462D01*
G01X5471Y2449D01*
G01X5475Y2437D01*
G01X5478Y2424D01*
G01X5482Y2412D01*
G01X5487Y2400D01*
G01X5492Y2388D01*
G01X5497Y2376D01*
G01X5503Y2364D01*
G01X5509Y2353D01*
G01X5516Y2342D01*
G01X5523Y2331D01*
G01X5530Y2320D01*
G01X5538Y2309D01*
G01X5546Y2299D01*
G01X5554Y2289D01*
G01X5563Y2279D01*
G01X5572Y2270D01*
G01X6156Y1686D01*
G01X6131Y1627D01*
G01X6100Y1527D01*
G01X6079Y1425D01*
G01X6069Y1322D01*
G01X6069Y1217D01*
G01X6079Y1114D01*
G01X6100Y1012D01*
G01X6131Y912D01*
G01X6171Y817D01*
G01X6221Y725D01*
G01X6279Y639D01*
G01X6346Y559D01*
G01X6399Y508D01*
G01X5284Y508D01*
G37*

%LPC*%

%LPD*%
G54D10*
G01X4572Y11176D02*
G01X4572Y13716D01*
G01X7112Y11176D02*
G01X7112Y13716D01*
G01X9652Y11176D02*
G01X9652Y13716D01*
G01X12192Y11176D02*
G01X12192Y13716D01*
G01X2032Y21336D02*
G01X2032Y21590D01*
G01X4572Y24130D01*
G01X4572Y1270D02*
G01X3302Y2540D01*
G01X3302Y9906D01*
G01X2032Y11176D01*
G01X7112Y1270D02*
G01X5842Y2540D01*
G01X5842Y9906D01*
G01X4572Y11176D01*
G01X9652Y1270D02*
G01X8382Y2540D01*
G01X8382Y9906D01*
G01X7112Y11176D01*
G01X12192Y1270D02*
G01X10922Y2540D01*
G01X10922Y9906D01*
G01X9652Y11176D01*
G01X14732Y1270D02*
G01X13462Y2540D01*
G01X13462Y9906D01*
G01X12192Y11176D01*
G01X14732Y13716D02*
G01X16002Y12446D01*
G01X24130Y12446D01*
G01X27940Y8636D01*
G01X4572Y21336D02*
G01X4572Y21590D01*
G01X7112Y24130D01*
G01X7112Y21336D02*
G01X7112Y21590D01*
G01X9652Y24130D01*
G01X9652Y21336D02*
G01X9652Y21590D01*
G01X12192Y24130D01*
G01X12192Y21336D02*
G01X12192Y21590D01*
G01X14732Y24130D01*
G01X14732Y21336D02*
G01X14732Y21590D01*
G01X17272Y24130D01*
G01X17272Y21336D02*
G01X17272Y21590D01*
G01X19812Y24130D01*
G01X19812Y21336D02*
G01X19812Y21590D01*
G01X22352Y24130D01*
G01X2032Y11176D02*
G01X3302Y12446D01*
G01X3302Y15494D01*
G01X6604Y18796D01*
G01X27940Y18796D01*
G01X17272Y1270D02*
G01X17018Y1270D01*
G01X14732Y3556D01*
G01X17272Y3556D02*
G01X17526Y3556D01*
G01X19812Y1270D01*
G01X19812Y3556D02*
G01X20066Y3556D01*
G01X22352Y1270D01*
G01X22352Y3556D02*
G01X22606Y3556D01*
G01X24892Y1270D01*
G01X29972Y24130D02*
G01X29972Y8128D01*
G01X27940Y6096D01*
G54D11*
G01X4572Y24130D03*
G01X24892Y24130D03*
G01X7112Y24130D03*
G01X9652Y24130D03*
G01X12192Y24130D03*
G01X17272Y24130D03*
G01X14732Y24130D03*
G01X19812Y24130D03*
G01X27432Y24130D03*
G01X29972Y24130D03*
G01X22352Y24130D03*
G01X27432Y1270D03*
G01X29972Y1270D03*
G01X24892Y1270D03*
G01X4572Y1270D03*
G01X9652Y1270D03*
G01X14732Y1270D03*
G01X17272Y1270D03*
G01X19812Y1270D03*
G01X22352Y1270D03*
G01X7112Y1270D03*
G01X12192Y1270D03*
G54D12*
G01X2032Y13716D03*
G01X4572Y13716D03*
G01X12192Y13716D03*
G01X14732Y13716D03*
G01X7112Y13716D03*
G01X9652Y13716D03*
G01X17272Y13716D03*
G01X19812Y13716D03*
G01X22352Y13716D03*
G01X24892Y13716D03*
G01X24892Y21336D03*
G01X22352Y21336D03*
G01X19812Y21336D03*
G01X17272Y21336D03*
G01X14732Y21336D03*
G01X12192Y21336D03*
G01X9652Y21336D03*
G01X7112Y21336D03*
G01X4572Y21336D03*
G01X2032Y21336D03*
G01X35560Y6096D03*
G01X35560Y8636D03*
G01X35560Y16256D03*
G01X35560Y18796D03*
G01X35560Y11176D03*
G01X35560Y13716D03*
G01X35560Y21336D03*
G01X27940Y21336D03*
G01X27940Y18796D03*
G01X27940Y16256D03*
G01X27940Y13716D03*
G01X27940Y11176D03*
G01X27940Y8636D03*
G01X27940Y6096D03*
G54D13*
G01X14732Y3556D03*
G01X14732Y11176D03*
G01X17272Y3556D03*
G01X17272Y11176D03*
G01X19812Y3556D03*
G01X19812Y11176D03*
G01X22352Y3556D03*
G01X22352Y11176D03*
G01X2032Y3556D03*
G01X2032Y11176D03*
G01X4572Y3556D03*
G01X4572Y11176D03*
G01X7112Y3556D03*
G01X7112Y11176D03*
G01X9652Y3556D03*
G01X9652Y11176D03*
G01X12192Y3556D03*
G01X12192Y11176D03*
M00*
M02*
