G04 ---------------------------- Layer name :TOP SOLDER LAYER*
G04 EasyEDA v5.7.22, Tue, 28 Aug 2018 22:53:05 GMT*
G04 1f8b3ca3c2ad4f10b54c6f686152f78d*
G04 Gerber Generator version 0.2*
G04 Scale: 100 percent, Rotated: No, Reflected: No *
G04 Dimensions in millimeters *
G04 leading zeros omitted , absolute positions ,3 integer and 3 decimal *
%FSLAX33Y33*%
%MOMM*%
G90*
G71D02*

%ADD11C,1.778000*%
%ADD12C,1.803400*%
%ADD13C,1.778203*%

%LPD*%
G54D11*
G01X4572Y24130D03*
G01X24892Y24130D03*
G01X7112Y24130D03*
G01X9652Y24130D03*
G01X12192Y24130D03*
G01X17272Y24130D03*
G01X14732Y24130D03*
G01X19812Y24130D03*
G01X27432Y24130D03*
G01X29972Y24130D03*
G01X22352Y24130D03*
G01X27432Y1270D03*
G01X29972Y1270D03*
G01X24892Y1270D03*
G01X4572Y1270D03*
G01X9652Y1270D03*
G01X14732Y1270D03*
G01X17272Y1270D03*
G01X19812Y1270D03*
G01X22352Y1270D03*
G01X7112Y1270D03*
G01X12192Y1270D03*
G54D12*
G01X2032Y13716D03*
G01X4572Y13716D03*
G01X12192Y13716D03*
G01X14732Y13716D03*
G01X7112Y13716D03*
G01X9652Y13716D03*
G01X17272Y13716D03*
G01X19812Y13716D03*
G01X22352Y13716D03*
G01X24892Y13716D03*
G01X24892Y21336D03*
G01X22352Y21336D03*
G01X19812Y21336D03*
G01X17272Y21336D03*
G01X14732Y21336D03*
G01X12192Y21336D03*
G01X9652Y21336D03*
G01X7112Y21336D03*
G01X4572Y21336D03*
G01X2032Y21336D03*
G01X35560Y6096D03*
G01X35560Y8636D03*
G01X35560Y16256D03*
G01X35560Y18796D03*
G01X35560Y11176D03*
G01X35560Y13716D03*
G01X35560Y21336D03*
G01X27940Y21336D03*
G01X27940Y18796D03*
G01X27940Y16256D03*
G01X27940Y13716D03*
G01X27940Y11176D03*
G01X27940Y8636D03*
G01X27940Y6096D03*
G54D13*
G01X14732Y3556D03*
G01X14732Y11176D03*
G01X17272Y3556D03*
G01X17272Y11176D03*
G01X19812Y3556D03*
G01X19812Y11176D03*
G01X22352Y3556D03*
G01X22352Y11176D03*
G01X2032Y3556D03*
G01X2032Y11176D03*
G01X4572Y3556D03*
G01X4572Y11176D03*
G01X7112Y3556D03*
G01X7112Y11176D03*
G01X9652Y3556D03*
G01X9652Y11176D03*
G01X12192Y3556D03*
G01X12192Y11176D03*
M00*
M02*
